/* XPM */
static char *_b679ec552a54ff891173c98c96a7e50N1IJZIPBuH45ZRtu[] = {
/* columns rows colors chars-per-pixel */
"50 50 196 2 ",
"   c None",
".  c #7D781D",
"X  c #8C4A16",
"o  c #854318",
"O  c #894618",
"+  c #8E4B18",
"@  c #864317",
"#  c #924D18",
"$  c #914E16",
"%  c #955116",
"&  c #9C5415",
"*  c #9E5916",
"=  c #965118",
"-  c #A25B15",
";  c #AF5F12",
":  c #836F1B",
">  c #9A6614",
",  c #A56316",
"<  c #AB6416",
"1  c #A36816",
"2  c #B46A14",
"3  c #B16718",
"4  c #B76915",
"5  c #B17011",
"6  c #BD7A14",
"7  c #D65D0F",
"8  c #CC4B17",
"9  c #C54519",
"0  c #C94618",
"q  c #C74D19",
"w  c #C94C18",
"e  c #CB4517",
"r  c #D14D16",
"t  c #CD5415",
"y  c #CD5A16",
"u  c #C75218",
"i  c #C95219",
"p  c #CB5818",
"a  c #D45415",
"s  c #DA5515",
"d  c #D45B12",
"f  c #DB5D11",
"g  c #C3690E",
"h  c #DD650E",
"j  c #DE6A0C",
"k  c #D6620E",
"l  c #CF760C",
"z  c #D66211",
"x  c #DC6111",
"c  c #DB6915",
"v  c #D66913",
"b  c #C67E10",
"n  c #D9741C",
"m  c #E06C0B",
"M  c #E57D07",
"N  c #E27409",
"B  c #E37A09",
"V  c #E37B13",
"C  c #C17921",
"Z  c #8F8419",
"A  c #8F8B19",
"S  c #938F17",
"D  c #928E18",
"F  c #9F8C15",
"G  c #959117",
"H  c #999515",
"J  c #9E9A13",
"K  c #A69E0F",
"L  c #A89F0E",
"P  c #A28416",
"I  c #B28714",
"U  c #A49313",
"Y  c #A29D11",
"T  c #ACA40B",
"R  c #B0A70A",
"E  c #B2AA0A",
"W  c #B7B009",
"Q  c #CA860C",
"!  c #D78E07",
"~  c #D1830E",
"^  c #DC8808",
"/  c #DB8408",
"(  c #CE960F",
")  c #D3930A",
"_  c #D18F10",
"`  c #DD9D16",
"'  c #E68306",
"]  c #E88705",
"[  c #E78A04",
"{  c #E98B04",
"}  c #E68309",
"|  c #E88708",
" . c #E68A0C",
".. c #E98D0A",
"X. c #EB9206",
"o. c #EE9A07",
"O. c #E2930E",
"+. c #EC950B",
"@. c #E69E0E",
"#. c #EE9B0C",
"$. c #F09F0C",
"%. c #E38312",
"&. c #E79310",
"*. c #E99310",
"=. c #EC9C12",
"-. c #EC9F18",
";. c #E3921F",
":. c #E6A10E",
">. c #ECA30C",
",. c #F1A30C",
"<. c #F3AB0D",
"1. c #F6B30D",
"2. c #F8B70D",
"3. c #F9BC0D",
"4. c #F6B90B",
"5. c #EEA215",
"6. c #EDA31B",
"7. c #EEA919",
"8. c #F1A610",
"9. c #F3AD12",
"0. c #F1AD1B",
"q. c #F5B514",
"w. c #F4B916",
"e. c #F8B814",
"r. c #F6B619",
"t. c #F8BE19",
"y. c #F3BA18",
"u. c #DD9837",
"i. c #DA9738",
"p. c #D59134",
"a. c #EFAF23",
"s. c #F3B320",
"d. c #F6B820",
"f. c #F0B52B",
"g. c #F1BB34",
"h. c #FAC10E",
"j. c #FBC40D",
"k. c #FDCA0E",
"l. c #F7C716",
"z. c #FAC514",
"x. c #FCCB14",
"c. c #F6C61A",
"v. c #FAC618",
"b. c #F8CF1D",
"n. c #F7CC1B",
"m. c #FBD31B",
"M. c #FCDD1B",
"N. c #FAD217",
"B. c #F5C627",
"V. c #F6CC2C",
"C. c #F8C725",
"Z. c #FCD423",
"A. c #FCDC23",
"S. c #F9D32A",
"D. c #FBDC2B",
"F. c #F9C637",
"G. c #F5CC35",
"H. c #F6CE3F",
"J. c #FACE3F",
"K. c #F9C933",
"L. c #F7D535",
"P. c #FADA33",
"I. c #F6D43F",
"U. c #F8D73A",
"Y. c #FCE125",
"T. c #FCE32B",
"R. c #FCE534",
"E. c #FAE43B",
"W. c #FBE83D",
"Q. c #EDAF4A",
"!. c #F4CC46",
"~. c #F3CB48",
"^. c #F9CE4A",
"/. c #F6C744",
"(. c #F6D446",
"). c #F9DE49",
"_. c #FAD044",
"`. c #FAD151",
"'. c #F7DC56",
"]. c #F8DF53",
"[. c #FAD55A",
"{. c #F7DD58",
"}. c #FBE444",
"|. c #FBEA43",
" X c #FBEC4B",
".X c #FAE649",
"XX c #F8E254",
"oX c #FBEC53",
"OX c #F9E75E",
"+X c #FBEC5A",
"@X c #FCF05A",
"#X c #FAD761",
"$X c #FBDE6E",
"%X c #FCDE61",
"&X c #FAEE61",
"*X c #FCEE97",
/* pixels */
"                                                                                                    ",
"                                                                                                    ",
"                                            Q.i.                  J U                               ",
"                                          i.p.C 3       L   T Y Y Y                                 ",
"                                          3 3 2 1       T T T L K Y                                 ",
"                                            2 2 1       T T R T T T                                 ",
"                                            4 2 1 :     E W W T T T T T L                           ",
"                                              3 <   .   Y E E E E E E T E T                         ",
"                                              < -       A S H J Y Y T E E E E                       ",
"                                              - &       D D S S S S S H Y Y Y                       ",
"                                              & = -     S D G H S S S S D D                         ",
"                                        B B 4 = # # - F D D S H H H H G                             ",
"                            } ' !   M M M g & + + + X > Q P D H H U /                               ",
"                      ] ] ] { { { +...l ; $ + @ O @ O @ & 2 Z D H U ^ ] [                           ",
"                    X.X.o.o.#.+.#.#.~ * @ @ O X $ + @ @ * ~ _ F D H ) +.#.+.#.+.                    ",
"                  <.<.<.<.,.,.,.$.$.#.O.2 % 6 ` :.O.b 5 @.<.<.@._ I ( $.$.,.<.,.+.+.                ",
"                <.2.2.,.,.,.9.t.1.$.#.+.+.:.`.&Xr.,.$.$.8.,.2.2.1.,.+.#.#.9.1.<.o.+.{               ",
"              <.3.h.h.<.,.,.^.%Xh.,.+.+.,.F.*X[.1.,.$.$.$.,.<.1.1.<.,.+.+.,.<.<.<.+.X.              ",
"            <.<.3.3.1.,.,.<._.K.h.,.+.o.q.`.$Xe.<.,.$.$.#.#.,.,.#.8.,.+.+.+.,.<.o.o.{ [             ",
"            <.<.1.2.,.+.$.r.H.3.1.+.X.<.F.[.q.<.,.$.$.$.*.+.#.$.#.#.,.+.+...#.#.X.X.{ [             ",
"          <.,.<.<.,.#.o.$.r.C.1.#.{ o.<.[._.<.<.$.$.$.#.#.+.+.$.#.+.#.,.X.{ X.X.X.{ [ ] '           ",
"          <.<.,.,.$.,.h.<.<.<.$.X.{ ,.r.^.q.<.,.$.#.#.#.#...{ +.+.+.<.z.<.] X.X.{ [ ] ] ]           ",
"          <.,.,.,.X.4.k.v.<.#.X.{ X.,.e.r.<.,.$.$.#.$.+.+.{ { +.#.e.x.k.3.[ { { { { [ ] '           ",
"        8.,.,.,.o.X.j.k.T.S.+.{ { { <.<.<.<.,.$.#.#.+.+.+.{ { +.B.R.T.k.j.{ [ { { { ] ' M           ",
"        ,.,.,.#.+.{ j.x.E.P.X.[ ] +.<.<.<.8.$.#.#.+.+.+.X.{ ] X.L.W.R.x.k.+.' [ ] ] ] ' M M         ",
"        ,.,.,.#...X.k.m.|.}.7.5.f.$.<.<.,.8.$.#.+.#.+.X.{ -.+.6.}. XE.x.k.] ' [ [ ] ' M M B         ",
"        ,.,.#.#.] +.j.m. XoXoXXX&XH.9.,.<.$.$.+.+.+.+.+.g.&X{.+X@XoX|.x.j.[ B ] ] [ ] M M B         ",
"        $.=.#.#.| ] 3.v.).].].'.'.{.F.<.,.$.$.#.+.+...6.Q.~.~._.!.(.G.e.1.' j ] ] ] ' M N N         ",
"        #.$.#.+.' B ..X.*.*.*... .$.9.8.,.$.+.+.+.X.{ { { ] ' M B [ | | [ M k ' ] ' ' B B N         ",
"        #.+.+.+.' M ' ] ] ' ' M M +.,.,.$.+.#.+.+.X.{ [ { ] ' B j M [ ] } B j } } ' M B N B         ",
"      } +.$.*.+.| <.{ ] ] ' M M M +.,.,.$.+.$.+.X.{ { [ ] ' M B k M ] ' ' } %.M ' ' M N N m         ",
"      N +.+.+.{ ' 3.h.$.' M M M M $.,.,.$.+.+.X.{ { ] ] ' ' M N h B ' ' ..1.V B ' ' M m N j         ",
"        ..+.X.{ ' 1.k.j.<.] M B B +.,.#.+.+.+.X.{ { ] ] ' } B N 7 B ..5.3.2.c B ' M B m m j         ",
"        ] X.{ [ M $.x.P.Z.z.$.M B +.$.#.+.+.X.{ [ [ ] ' ' M N j v a.P.Z.e.<.d M ' M m m m j         ",
"        B { { { B | j.}.&XoX}.K.%...@.7.s.7.5.=.=.=.#.=.6.} N j n P.T.l.h.%.t M M B j m j           ",
"        N ] ] ] B N 2.S.+X+X@X(.V %.,.U. X}.}.E.E.P.E.E.R.5.B %.;.D.A.h.1.d 7 ' M N j m j           ",
"          B | | N j ..v.}.oX X XI.L.V.E.|.W.W.W.E.R.R.R.R.S.C.D.T.A.x.3.} e h M N m j j f           ",
"          j M ' B m h O.Z. X|.|.|.|.|.W.W.E.R.R.R.R.R.T.T.Y.Y.Y.Y.m.3.$.f r N M m j h x             ",
"            N ' N m f d 8.D.|.W.W.R.R.R.R.T.T.R.T.T.Y.Y.Y.Y.M.M.M.h.$.N r t M N j h x y             ",
"            x h f m h 8 f +.S.E.R.R.R.R.T.T.Y.Y.b.c.y.b.M.M.M.M.q...B f r h N j m f y               ",
"              x x m m r e f V 6.C.D.T.Y.Y.Y.Y.n. .M B 9.M.N.y.%.f m j s 8 j h h f y i               ",
"                f f m f e s f x c n 7.n.m.m.m.l.] M M } +.V f 8 s s s r d h j f t w                 ",
"                  x x x e r f f f e f ] ....+...M M N j h h t r s s s a h h d t q                   ",
"                    x x s e s s s 8 w B M ' M M B N j h h d 0 s s s a d d t i q                     ",
"                      x x a 8 s s a 9 z N m N m j j h x d 0 8 s s s t t i q                         ",
"                              s s s 8 0 h c m j h h x a i 9 a s s a                                 ",
"                                  s a 0 q z z z d d t u 9 0 s s                                     ",
"                                              y p i u                                               ",
"                                                                                                    ",
"                                                                                                    "
};
