/* XPM */
static char *result[] = {
/* columns rows colors chars-per-pixel */
"50 50 232 2 ",
"   c #25171D",
".  c #29191E",
"X  c #26181E",
"o  c #261A21",
"O  c #2B1C23",
"+  c #2D1E2A",
"@  c #231721",
"#  c #321F24",
"$  c #321F29",
"%  c #2E222C",
"&  c #2D2025",
"*  c #332126",
"=  c #33242C",
"-  c #39262A",
";  c #3C2A2D",
":  c #392527",
">  c #342531",
",  c #352B32",
"<  c #3C2B33",
"1  c #3C2C39",
"2  c #3C3336",
"3  c #3D333A",
"4  c #3A3538",
"5  c #442D2D",
"6  c #472C2A",
"7  c #4B322E",
"8  c #46302F",
"9  c #422D34",
"0  c #412E39",
"q  c #433235",
"w  c #4C3433",
"e  c #42343A",
"r  c #4B353B",
"t  c #443A3C",
"y  c #4D3C3D",
"u  c #4B3A36",
"i  c #523531",
"p  c #533934",
"a  c #533C3B",
"s  c #5A3D3A",
"d  c #5A3B34",
"f  c #54342E",
"g  c #613E36",
"h  c #4A403D",
"j  c #5E4135",
"k  c #5C433C",
"l  c #55413C",
"z  c #624436",
"x  c #63443B",
"c  c #6C4D3C",
"v  c #66483D",
"b  c #6C513C",
"n  c #70533F",
"m  c #714B3D",
"M  c #3F3540",
"N  c #453E42",
"B  c #4B3C43",
"V  c #443743",
"C  c #543D42",
"Z  c #4D4343",
"A  c #4D4547",
"S  c #544343",
"D  c #5C4542",
"F  c #534B46",
"G  c #5B4A44",
"H  c #5B4549",
"J  c #544B4A",
"K  c #5C4D4A",
"L  c #52434B",
"P  c #5B544D",
"I  c #5B5346",
"U  c #5B4E52",
"Y  c #554C52",
"T  c #5B5453",
"R  c #5D5953",
"E  c #5B5A58",
"W  c #614643",
"Q  c #654B44",
"!  c #6A4D43",
"~  c #644E4B",
"^  c #674B48",
"/  c #6B5245",
"(  c #63554E",
")  c #6B524A",
"_  c #645B4C",
"`  c #6D5C4D",
"'  c #655347",
"]  c #725544",
"[  c #745A45",
"{  c #7B5A45",
"}  c #74564B",
"|  c #745B4C",
" . c #7B5C4C",
".. c #7A5545",
"X. c #625451",
"o. c #645C54",
"O. c #6A5D53",
"+. c #645B5A",
"@. c #695E5D",
"#. c #625559",
"$. c #765B51",
"%. c #7D5E52",
"&. c #724E41",
"*. c #69624D",
"=. c #7D624E",
"-. c #666255",
";. c #6C6455",
":. c #64635B",
">. c #6C645B",
",. c #6E6A5A",
"<. c #7C6253",
"1. c #726B5C",
"2. c #76675A",
"3. c #78745B",
"4. c #6D6463",
"5. c #6D6B61",
"6. c #736D63",
"7. c #756962",
"8. c #757365",
"9. c #7B7464",
"0. c #7B746B",
"q. c #7D7B6D",
"w. c #787866",
"e. c #7C7673",
"r. c #835D4D",
"t. c #885F4E",
"y. c #835F53",
"u. c #83624D",
"i. c #8A664D",
"p. c #846553",
"a. c #8C6351",
"s. c #846B56",
"d. c #8C6B54",
"f. c #846B5C",
"g. c #876A5A",
"h. c #916D53",
"j. c #936D59",
"k. c #8C725A",
"l. c #8C775C",
"z. c #94745A",
"x. c #9A755A",
"c. c #957A5D",
"v. c #9B7B5D",
"b. c #967455",
"n. c #A47B5E",
"m. c #847B6C",
"M. c #867767",
"N. c #947360",
"B. c #947C63",
"V. c #9B7B63",
"C. c #987968",
"Z. c #847D73",
"A. c #8D6D60",
"S. c #A37C63",
"D. c #7D805E",
"F. c #91835D",
"G. c #A3835D",
"H. c #A68B5D",
"J. c #898968",
"K. c #9D8363",
"L. c #9C8569",
"P. c #968867",
"I. c #8C9366",
"U. c #92936B",
"Y. c #969A68",
"T. c #858473",
"R. c #898373",
"E. c #8B867A",
"W. c #8C8C7B",
"Q. c #8B8974",
"!. c #938A75",
"~. c #918B79",
"^. c #8E9477",
"/. c #999C7B",
"(. c #969877",
"). c #A48363",
"_. c #AA8464",
"`. c #A68A65",
"'. c #AB8C64",
"]. c #A5856C",
"[. c #A58B6A",
"{. c #AD8C6A",
"}. c #AC876A",
"|. c #B28C6A",
" X c #AD936A",
".X c #AA9967",
"XX c #B19366",
"oX c #B2946A",
"OX c #B39D6D",
"+X c #BA986B",
"@X c #A98771",
"#X c #AB9571",
"$X c #B59572",
"%X c #B49D72",
"&X c #B89F72",
"*X c #97A16D",
"=X c #9DA57B",
"-X c #9CA374",
";X c #A2A37D",
":X c #A7A97B",
">X c #BCA271",
",X c #BBA878",
"<X c #AFA16D",
"1X c #C2A474",
"2X c #C7A871",
"3X c #C1A16E",
"4X c #949485",
"5X c #969D82",
"6X c #9C9A8A",
"7X c #9A9885",
"8X c #928D82",
"9X c #A29B81",
"0X c #9EA183",
"qX c #A3A483",
"wX c #ABAB83",
"eX c #A6A989",
"rX c #ADB38B",
"tX c #ACB189",
"yX c #B2B68C",
"uX c #B6B68C",
"iX c #B4B594",
"pX c #BDBC96",
"aX c #BCBC99",
"sX c #B7B796",
"dX c #AFAF90",
"fX c #C3BD97",
"gX c #C2BAA1",
"hX c #BBC09C",
"jX c #CBCA9C",
"kX c #C6C39B",
"lX c #C8C5A3",
"zX c None",
/* pixels */
"zXzXzXzXzXzXzXzXzXzXzXzXzXzXzXzXzXzXzXzXzXzXzXzXzXzXzXzXzXzXzXzXzXzXzXzXzXzXzXzXzXzXzXzXzXzXzXzXzXzX",
"zXzXzXzXzXzXzXzXzXzXzXzXzXzXzXzXzXzXzXzXzXzXzXzXzXzXzXzXzXzXzXzXzXzXzXzXzXzXzXzXzXzXzXzXzXzXzXzXzXzX",
"zXzXzXzXzXzXzXzXzXzXzXzXzXzXzXzX9 r a r 9 9 q u q q r a r r S H C C B zXzXzXzXV @.zXzXzXzXzXzXzXzXzX",
"zXzXzXzXzXzXzXW.E.4.H 9 0 r r q a H ) W r a D x a u D k D a K ^ ^ W C W C r < 1 @.dXaXiXzXzXzXzXzXzX",
"zXzXzXzXzX7X/.W.m.U 0 < u W W l }  .u./ l ) u.r.| D %.&.} D G %.%.$.^ $.^ s 9 1 Y Z.9X9XfXzXzXzXzXzX",
"zXzXzXzXzXeX~.R.4.0 < r W =.! | B.v.c./ | k.'.n.k.` z.h.x.$.D <.g.j. .} a.r.m 0 C 4.~./.aXzXzXzXzXzX",
"zXzXzXzXtX0X^.Z.L > s ] u.d./ v.oX XK.[ `. X2XH.v.<.`.G.{.c.` g.S.}.j.$.A.a.t.W M Y Z.eXlXgXzXzXzXzX",
"zXzXzXzX0X/.T.U 0 = !  .x.k.|  XOXOXK.=.OX>X2X`.P.s.XX'.XX[.3.N.@X$XS.A.C.A.j.r.1 C U 8XsXgXzXzXzXzX",
"zXzXzXzXA V = > = 5  .p.c.k.p.&XOX.XP.k.,X>X3X`.[.s.oXXXXX&Xk.A.@X$X$XC.C.].N.t.r V 1 + 0 C zXzXzXzX",
"zXzXzXzX-.J , @ @ s u.k.k.<.l..X.X.Xs.#X,X2X>XoXL.s.%XoX+X,XP.f.L.$X@X@XA.@XC.a.g > M U Z.m.!.zXzXzX",
"zXzXzXrXyX;XT o . Q g.d.s./ K.H.H..Xs.,X>X1X1XOXL.<.#X'.$X1X].<.C.@X$X@Xf.C.@Xj.r.> C Z.sXwXsXzXzXzX",
"zXzXzXwXQ.3.B = & v p.j.p.' G.G.H.XXs.oX>X&X+X+XP.<. XXXoX>X#Xf.C.@XS.|.y.C.@XC.t.r C 4.eX(.wXsXzXzX",
"zXzXzX^.1.;.e * - ! =.k.$.} G.G.G.K.=..X+X+X+XXXk.<.).oXoX$X$Xf.C.S.C.}.y.A.S.S.a.s 0 #.4X;X#XaXzXzX",
"zXzX(.w.2.O.3 * u !  .k.'  .b.n.c.b.$.[.oX|.|._.p.) v.|.|.|.{.f.A.C.S.S.y.y.S.S.a.g 0 H E.eX5XiXzXzX",
"zXzX(.1.O.K 2 = u k / | W  .b.n.b.d.<.)._._.S.S.$.^ k._.).}._.p.g.N.S.S.y.y.S.j.r.d 0 H 5.5X/.0XzXzX",
"zXzX0X!.3.S e - w a k Q D  .d.b.h.h.| v._.x.b.c.$.~ f.).V.].].<.y.N.N.A.y.$.N.C.a.C C H 4.4X0X4XzXzX",
"zXzXP o.F 1 % & ; 5 q y u Q /  . ...C ^ ^ ^ ^ ( K C ~ ( K U ~ B B H H H H C W #.W V r B V V L L zXzX",
"zXzX8.,.5.8.8.-.o.-.,.:.+.+.+.+.T U X.O.m.m.Z.R.~.!.~.E.Z.Z.#.Z.E.8X8X4X4X7X6X6X6X7X7X7X5X5X6X6X6XzX",
"zXeX-X-X;X-X*X*XY.*XY.-X^.J.m.w.6.q.9X0.E.fXkXjXkXfXlXkXgXe.U 4XE.T.T.T.8X(.qXqXeXqXdXdXrXeXiXhXsXzX",
"zX-XI.I.I.I.I.Y.Y.*XY.I.J.8.8.6.4.+.M.4.R kXjXpX>.( dXjXgX4.Y E.5.w.Q.=XqXwXrXyXtXwXwX;X=XqXwXaXsXzX",
"zX(.I.I.I.F.F.Y.*X.X*X<XU.Q.m.9.6.6.M.4.T fXjX!.H X./.jXkX4.L D.w.q.Q.^.yXyXyXuXtX:X:X;X(.=X=XsXiXzX",
"zX=XI.I.Y.I.F.I.Y.Y.U.J.R.R.m.m.m.m.~.4.K fXjXeXO.) 9XlXkX4.V 8XW.W.4X5X5X5X0X7X/./.U.^.^.(.^.tXeXzX",
"zXT.w.,.*.*.*.*._ *.2.;.o.;.7.0.m.0.7.B L uXjXkX>.X.eXhXgX4.M Y +.+.+.o.E :.>.>.o._ T R R R R R zXzX",
"zXzXP *.*.v h t l q O O # $ $ $ $ = - O S uXfXsX+.H 0XiXaX4.M M < < 9 < < 9 9 = 9 ( _ O.-.R *.o.zXzX",
"zXzX0X:XD._ o.J ,.;.= w s x g ! ^ W W > T uXpXaX4XE.iXaXlXe.M V S !  .&.^ x a < K Q.3.1.w.3./.aXzXzX",
"zXzX0X=XR ,.Q.Y E R 9 p x &...r...} ) q B +.@.>.4.4.@.4.4.#.B V ^ }  .%. .) d - G M.( ( /.w.^.sXzXzX",
"zXzXqXtX:.-.-.N E -.2 d x m r.i.t.%.) q 1 > 1 > > > = + + = 1 C ^ | %.%.} ! s $ I m.O.K P.J.=XdXzXzX",
"zXzXzXyXD.F 4 A :.R = u x m { h.h.r. ./ / Q k y q q q q < 2 r G } %.p.<.} C 8 $ o.P.M._ _ 3.yXiXzXzX",
"zXzXzXiX^.3.-.E 5.E % : 8 7 v ....{  . . .[ ! k k k l l l x W / / ! ! W s w ; $ >.L.B.P.F.*XuXzXzXzX",
"zXzXzXyX(.3.D.^.w.:., q v / u.v.).).H.'._. XXXG.v.b.c.P.L.P.L.[.L.c.B.g.<.W u = ;.L.s.M.Y.Y.hXzXzXzX",
"zXzXzXyX:X` W.iXw.:.2 w v { i.x.G.H.'.'.XXXXXXXX'.'.`. X#XoXOX.X'.[.S.c.%.Q u - o.C._ !.(.I.yXzXzXzX",
"zXzXzXyXwX` ( ,.T >.2 = f z ..h.n._.'.XXXXoX.XoX X'.'.`. X_.H.'.'._.V.j. .z w = o.3.' U.I.I.wXzXzXzX",
"zXzXzXrXY.<.G t J :.3 - p z n { g.j.x.G.v.K.K.B.K.B.c.l.b.z.z.h.h.i. .v s i : = +.2.( I _ D.-XzXzXzX",
"zXzXzX;X;X3._ X.E T 3 % p z ! /  .s.p.p.=.=.=.=.=. .| | *.[ =.=.=.*./ k d i # = o._ ( F ;.D.J.zXzXzX",
"zXzXzXF o.3.' G A A , O : j  .u.k.B.L.`.L.P.P.c.l.l.k.s.k.h.b.x.x.j.[ z d w * % J ;.F P 3.R P zXzXzX",
"zXzXzX3 2 K _ S A N t y * 6 c ] [  .[ =.=.[ ] ] [ [ n =.u.u.i.i.i.u.c f 5 - h < = o.>.1.I , = zXzXzX",
"zXzXzX0.m.M.( G Z N +.+.e * d b / [ ] n n n n b b b b b b b n =.u.{ c 6 : 5 X.2.e % 2 F -.5.:.zXzXzX",
"zXzXzXM.m.T.R.1.-.8.0.5.h & 8 z z z d d z z z z j j j j j j j z c c g 6 * 9 X.m.M.2.,.q.w.5.8.zXzXzX",
"zXzXzX6.0.m.!.!.E.m.6.8.e O : 7 i i w 7 f p f 7 7 7 7 7 7 8 7 w 7 8 : # . < I 7.9.C.R.9.6.,.o.zXzXzX",
"zXzXzXzXS X.>.( ( ( P J &   & w k k i w 7 i p 7 7 8 6 6 5 6 8 w a i 5 O # = 0 K J J F A J N zXzXzXzX",
"zXzXzXzX3 l G k G G G t @     - 5 8 5 ; : : : : # # # * : : 5 8 w 8 = O O + = h t Z 4 N 4 , zXzXzXzX",
"zXzXzXzX= t l h h u 2 = O     O O * = & * O O . . . . . . . . O & O   O O + % = , , 4 4 4 % zXzXzXzX",
"zXzXzXzX4 y Z A h B y q = O   O O o O O O O @ O .           @   . @ o o O O - , 4 4 M N t 4 zXzXzXzX",
"zXzXzXzX>.,.7.6.,.P Z h , @ & & zXzXzXzXzXzXzXzXzXzXzXzXzXzXzXzXzXzXzXo o O t t Z A E P I R zXzXzXzX",
"zXzXzX>.>.>.>.-.P Z , 2 = o zXzXzXzXzXzXzXzXzXzXzXzXzXzXzXzXzXzXzXzXzXzXO & 4 4 t 4 Z F A I F zXzXzX",
"zXzXzXzXzXzXzXzXzXzXzXzXzXzXzXzXzXzXzXzXzXzXzXzXzXzXzXzXzXzXzXzXzXzXzXzXzXzXzXzXzXzXzXzXzXzXzXzXzXzX",
"zXzXzXzXzXzXzXzXzXzXzXzXzXzXzXzXzXzXzXzXzXzXzXzXzXzXzXzXzXzXzXzXzXzXzXzXzXzXzXzXzXzXzXzXzXzXzXzXzXzX",
"zXzXzXzXzXzXzXzXzXzXzXzXzXzXzXzXzXzXzXzXzXzXzXzXzXzXzXzXzXzXzXzXzXzXzXzXzXzXzXzXzXzXzXzXzXzXzXzXzXzX",
"zXzXzXzXzXzXzXzXzXzXzXzXzXzXzXzXzXzXzXzXzXzXzXzXzXzXzXzXzXzXzXzXzXzXzXzXzXzXzXzXzXzXzXzXzXzXzXzXzXzX",
"zXzXzXzXzXzXzXzXzXzXzXzXzXzXzXzXzXzXzXzXzXzXzXzXzXzXzXzXzXzXzXzXzXzXzXzXzXzXzXzXzXzXzXzXzXzXzXzXzXzX"
};
