/* XPM */
static char *result[] = {
/* columns rows colors chars-per-pixel */
"50 50 235 2 ",
"   c #020102",
".  c #05040A",
"X  c #09070B",
"o  c #15060D",
"O  c #100F03",
"+  c #120D15",
"@  c #1A0B13",
"#  c #150F1B",
"$  c #1A131C",
"%  c #1D1A1A",
"&  c #1B1A0D",
"*  c #23181A",
"=  c #2E2E16",
"-  c #191523",
";  c #180E25",
":  c #2C1C23",
">  c #221B2C",
",  c #241924",
"<  c #311E25",
"1  c #271E35",
"2  c #2C262B",
"3  c #282428",
"4  c #332225",
"5  c #35242B",
"6  c #3A262B",
"7  c #3C2A2C",
"8  c #382627",
"9  c #292332",
"0  c #2D2638",
"q  c #342632",
"w  c #3B2B32",
"e  c #332B3C",
"r  c #392D37",
"t  c #3E353A",
"y  c #483918",
"u  c #4E2A0F",
"i  c #6A3A0C",
"p  c #442C2B",
"a  c #482C29",
"s  c #4B322D",
"d  c #53362E",
"f  c #52382F",
"g  c #433234",
"h  c #4B3432",
"j  c #43353A",
"k  c #443B3D",
"l  c #4F3D3C",
"z  c #513632",
"x  c #543A33",
"c  c #5A3C34",
"v  c #553C39",
"b  c #402C32",
"n  c #613F35",
"m  c #534F19",
"M  c #57433C",
"N  c #595237",
"B  c #6B4D3B",
"V  c #65463B",
"C  c #72523E",
"Z  c #6D4F37",
"A  c #747122",
"S  c #6C5E14",
"D  c #372D47",
"F  c #3D3547",
"G  c #2F2342",
"H  c #493E41",
"J  c #453A46",
"K  c #473D56",
"L  c #483C5B",
"P  c #423554",
"I  c #4C4342",
"U  c #4C4749",
"Y  c #524542",
"T  c #5A4644",
"R  c #5A4A43",
"E  c #554B4B",
"W  c #5B524D",
"Q  c #57534A",
"!  c #4C4255",
"~  c #534A59",
"^  c #5B5555",
"/  c #644C43",
"(  c #6A4D45",
")  c #624A45",
"_  c #60554C",
"`  c #6C534A",
"'  c #685548",
"]  c #735449",
"[  c #765B4C",
"{  c #7B5D4B",
"}  c #795945",
"|  c #645B53",
" . c #675D57",
".. c #714F46",
"X. c #7C624D",
"o. c #6C655A",
"O. c #696758",
"+. c #73695C",
"@. c #766857",
"#. c #7A745C",
"$. c #797759",
"%. c #656148",
"&. c #564767",
"*. c #5E516A",
"=. c #5B4D71",
"-. c #5C5171",
";. c #635668",
":. c #665873",
">. c #6A6966",
",. c #736D64",
"<. c #756C67",
"1. c #747265",
"2. c #7C7464",
"3. c #797668",
"4. c #746874",
"5. c #7C7876",
"6. c #6B6C6B",
"7. c #964702",
"8. c #A4560C",
"9. c #846B1B",
"0. c #935E2C",
"q. c #8E5A2A",
"w. c #967933",
"e. c #AE752C",
"r. c #D8720B",
"t. c #FA7700",
"y. c #815C4C",
"u. c #83644D",
"i. c #8A674E",
"p. c #836551",
"a. c #836953",
"s. c #8C6E55",
"d. c #866A59",
"f. c #926D52",
"g. c #87755A",
"h. c #99765D",
"j. c #A17F5E",
"k. c #A27144",
"l. c #827B6D",
"z. c #887C68",
"x. c #937A61",
"c. c #967963",
"v. c #847C74",
"b. c #A37E61",
"n. c #7D845F",
"m. c #948E2E",
"M. c #B7B63A",
"N. c #D68817",
"B. c #FC8607",
"V. c #F59918",
"C. c #F48F12",
"Z. c #FDA91C",
"A. c #EE9321",
"S. c #FCA829",
"D. c #F8B728",
"F. c #EFB030",
"G. c #D5A42E",
"H. c #F9C837",
"J. c #FFCD35",
"K. c #DBD63D",
"L. c #84855E",
"P. c #989746",
"I. c #B08457",
"U. c #B9A65A",
"Y. c #878768",
"T. c #938966",
"R. c #8C9264",
"E. c #8E926D",
"W. c #959868",
"Q. c #898676",
"!. c #948B75",
"~. c #979677",
"^. c #8D9274",
"/. c #AA8C64",
"(. c #A68864",
"). c #AC9569",
"_. c #B3956A",
"`. c #B19569",
"'. c #A19F70",
"]. c #9AA36C",
"[. c #9BA27A",
"{. c #A7A77B",
"}. c #B1AA77",
"|. c #F2B04F",
" X c #C2B66E",
".X c #C1AD5B",
"XX c #DCCB59",
"oX c #DAD456",
"OX c #FCDC48",
"+X c #FAD857",
"@X c #F9C84C",
"#X c #FDE95D",
"$X c #FFE843",
"%X c #FBD666",
"&X c #F3D178",
"*X c #FBE569",
"=X c #FBEC75",
"-X c #787088",
";X c #847C88",
":X c #8A8D84",
">X c #938B86",
",X c #999887",
"<X c #918D94",
"1X c #9A9597",
"2X c #A99D8A",
"3X c #9DA585",
"4X c #A6AC8C",
"5X c #A7A885",
"6X c #ADB28B",
"7X c #B5B68B",
"8X c #AAA794",
"9X c #B6B895",
"0X c #AEB18D",
"qX c #ACA7A8",
"wX c #B1ACAE",
"eX c #B6B4AA",
"rX c #988DA1",
"tX c #C5BE93",
"yX c #BEC29D",
"uX c #BDC1A3",
"iX c #C6C59A",
"pX c #D2CD9C",
"aX c #DDE199",
"sX c #FCF393",
"dX c #C3C5A6",
"fX c #CECEAB",
"gX c #FBFBA9",
"hX c #F0EAB2",
"jX c #FBD584",
"kX c #CCCBC5",
"lX c #CBC9C5",
"zX c #D0D2D2",
"xX c #FFFFD9",
"cX c #FEFFC1",
"vX c None",
/* pixels */
"vXvXvXvXvXvXvXvXvXvXvXvXvXvXvXvXvXvXvXvXvXvXvXvXvXvXvXvXvXvXvXvXvXvXvXvXvXvXvXvXvXvXvXvXvXvXvXvXvXvX",
"vXvXvXvXvXvXvXvXvXvXvXvXvXvXvXvXvXvXvXvXvXvXvXvXvXvXvXvXvXvXvXvXvXvXvXvXvXvXvXvXvXvXvXvXvXvXvXvXvXvX",
"vXvXvXvXvXvXvXvXvXvXvXvXvXvXvXvXvXvXvXvXvXvXvXvXvXvXvXvXvXvXvXvXvXvXvXvXvXvXvXvXvXvXvXvXvXvXvXvXvXvX",
"vXvXvXvXvXvXvXvXvXvXvXvXvXvXvXvXvXvXvXvXvXvXvXvXvXvXvXvXvXvXvXvXvXvXvXvXvXvXvXvXvXvXvXvXvXvXvXvXvXvX",
"vXvXvXvXvXvXvXvXvXvXvXvXvXvXvXvXvXvXvXvXvXvXvXvXvXvXvXvXvXvXvXvXvXvXvXvXvXvXvXvXvXvXvXvXvXvXvXvXvXvX",
"vXvXvXvXvXvXvXvXvXvXvXvXvXvXvXvXvXvXvXvXvXvXvXvXvXvX~ -XvXvXvXvXvXvXvXvXvXvXvXvXvXvXvXvXvXvXvXvXvXvX",
"vXvXvXvXvXvXvXvXvXvXvXvXvXvXvXvXvXvXvXvXvXvXvXvX;.; :.vXvXvXvXvXvXvXvXvXvXvXvXvXvXvXvXvXvXvXvXvXvXvX",
"vXvXvXvXvXvXvXvXvXvXvXvXvXvXvXvXvXvXvXvXvXvXvX*.L # 6.vXvXvXvXvXvXvXvXvXvXvXvXvXvXvXvXvXvXvXvXvXvXvX",
"vXvXvXvXvXvXvXvXvXvXvXvXvXvXvXvXvXvXvXvXvXvX3 - e 9 > vXvXvXvXvXvXvXvXvXvXvXvXvXvXvXvXvXvXvXvXvXvXvX",
"vXvXvXvXvXvXvXvXvXvXvXvXvXvXvXvXvXvXvXvXvXvX&.  + > 0 D vXvXvXvXvXvXvXvXvXvXvXvXvXvXvXvXvXvXvXvXvXvX",
"vXvXvXvXvXvXvXvXvXvXvXvXvXvXvXvXvXvXvXvXvXvX:.; X > - &.vXvXvXvXvXvXvXvXvXvXvXvXvXvXvXvXvXvXvXvXvXvX",
"vXvXvXvXvXvXvXvXvXvXvXvXvXvXvXvXvXvXvXvXvX:.;.&.F L G vXvXvXvXvXvXvXvXvXvXvXvXvXvXvXvXvXvXvXvXvXvXvX",
"vXvXvXvXvXvXvXvXvXvXvXvXvXvXvXvXvXvXvX,X<.4.:.*.=.&.F =.vXvXvXvXvXvXvXvXvXvXvXvXvXvXvXvXvXvXvXvXvXvX",
"vXvXvXvXvXvXvXvXvXvXvXvXvXvXvXvXvXvXvX,X&.&.P D D D D G ;XvXvXvXvXvXvXvXvXvXvXvXvXvXvXvXvXvXvXvXvXvX",
"vXvXvXvXvXvXvXvXvXvXvXvXvXvXvXvXvXvXvX;X=.&.L - # ; G F 1 vXvXvXvXvXvXvXvXvXvXvXvXvXvXvXvXvXvXvXvXvX",
"vXvXvXvXvXvXvXvXvXvXvXvXvXvXvXvX5.vXvX4.-X-X-., . # 9 F 0 F 5.5.vXvXvXvXvXvXvXvXvXvXvXvXvXvXvXvXvXvX",
"vXvXvXvXvXvXvXvXvXvXvXvXvXvX=       % ;.:XzX8XN = & > F F >         2 vXvXvXvXvXvXvXvXvXvXvXvXvXvXvX",
"vXvXvXvXvXvXvXvXvXvXvXvXvX=   X X X O & %.pXaXU.A y , 0 0 .   X X       vXvXvXvXvXvXvXvXvXvXvXvXvXvX",
"vXvXvXvXvXvXvXvXvXvXvXvXvX* + + + + + & m M.=XoXm.m.y   . . + + + + $ . vXvXvXvXvXvXvXvXvXvXvXvXvXvX",
"vXvXvXvXvXvXvXvXvXvXvXvXvXt 1 9 9 9 3 r N P.K.M.A S = % 2 0 9 9 9 9 9 ; vXvXvXvXvXvXvXvXvXvXvXvXvXvX",
"vXvXvXvXvXvXvXvXvXvXvXvXvX1XD L K K K ! ^ 5.~.{.~.2.*. .^ ~ ! L K K F ;XvXvXvXvXvXvXvXvXvXvXvXvXvXvX",
"vXvXvXvXvXvXvXvXvXvXvXvXvXvXrX&.=.=.=.=.4.#.2.E t t <X!. .;.-.-.=.&.vXvXvXvXvXvXvXvXvXvXvXvXvXvXvXvX",
"vXvXvXvXvXvXvXvXvXvXvXvXvXvXvXe.J Y R L.hXXXm.m y m 7XaXXXw.M t r u vXvXvXvXvXvXvXvXvXvXvXvXvXvXvXvX",
"vXvXvXvXvXvXvXvXvXvXvXvXvXvXjXZ.e.i 9.XXxXxX=X|.A.J.+XcXxXXXS i i 7.k.vXvXvXvXvXvXvXvXvXvXvXvXvXvXvX",
"vXvXvXvXvXvXvXvXvXvXvXvXvXvX%XD.S.A.G.+XsXgXsX%XD.OX*XsXgX*XC.r.8.7.0.vXvXvXvXvXvXvXvXvXvXvXvXvXvXvX",
"vXvXvXvXvXvXvXvXvXvXvXvXvXvX%XD.S.|.H.Z.Z.OX+X%X*X#X@XH.OXH.B.r.8.7.0.vXvXvXvXvXvXvXvXvXvXvXvXvXvXvX",
"vXvXvXvXvXvXvXvXvXvXvXvXvXvX%XD.S.A.A.B.B.H.+X+XgX=XJ.V.H.S.t.N.8.7.0.vXvXvXvXvXvXvXvXvXvXvXvXvXvXvX",
"vXvXvXvXvXvXvXvXvXvXvXvXvXvXjXD.D.A.&X|.C.H.%X&X=X*X@XA.H.S.V.G.7.7.0.vXvXvXvXvXvXvXvXvXvXvXvXvXvXvX",
"vXvXvXvXvXvXvXvXvXvXvXvXvXvXhXS.J.V.*XxX*X$X+XsXsX#X+XJ.#X*X#XN.7.7.I.vXvXvXvXvXvXvXvXvXvXvXvXvXvXvX",
"vXvXeXqXwXwXwXqX8XqXwXqXqXqX8Xe.e.0.e.}.7XU.U.}. X X.X X9XdXU.0.q.0.2XzXkXkXkXkXkXkXlXlXlXlXkXkXlXvX",
"vX0XR.E.E.E.E.n.n.n.Y.n.2.1.,.6.>.>.Q.;.v.8X8X8X9X8X9X8X8Xv.U :X1X:X:XQ.>X~.~.5X4X5X3X4X4X3X4X0X0XkX",
"vX3XR.E.R.R.R.].].].].[.Y.2.2.<.o. .Q.1.W pXpXiX2.W 5XpXfX5.j Q.1.o.Y.~.~.5X6X6X6X}.5X{.{.[.5X6XuXfX",
"vX[.R.W.R.L.T.).].'.].~.~.Q.z.3.d.l.v.<.T tXpX,XT ) l.pXiXl.J v.Q.Q.^.,X8X9X0X6X6X6X{.{.~.[.3X4XuXzX",
"vX^.n.$.$.$.$.$.X.$.g.#.@.2.l.l.v.l.v.W J tXiXiX2.T ~.tXiXl.e _ >.6.6.1.<.<.3.3.1.O.O.O.+.O.1.O.3.vX",
"vX1XQ %.N M t k M w 3 4 < < 5 6 5 q q * H tXiXdX<.J ,XyXfXv.e r w w b w w w b b 2 T _ W W Q Q W >XvX",
"vXvX9X[.| @.+.U $.W 4 h / V ( ..) ( ( q E 8X5X5X>XQ.2X4X8X>XJ j T / { { ....n b 5 Y.z.| Y.Y.$.7XvXvX",
"vXvXyX^.I 3.1.F O.W b v V C y.y.y.{ ] b q r r r g j r q q r H j ) [ X.y.[ ] T b < l.#.H z.~.$.6XvXvX",
"vXvXuX4XO.M e U >.W : x n B y.f.i.} } / / M l h w w w 7 5 w r I ( ] [ [ ` ) z < w Q.x.@._ O.W.iXvXvX",
"vXvXdX6Xn.$.O.>.6.Q : 6 a z V y.{ u.i.i.i.u.X.] ( B V ( ' ' ' [ [ ` ` ( ) H h < k T.x.g.W.W.{.dXvXvX",
"vXvXvX9XE.%.5X4X6.| 5 x ....f.j.(./././.`.`._.`./.(.T.).)._._._.).(.(.c.d...n 5 k T.a.@.'.R.[.dXvXvX",
"vXvXvX9X'.M +.,.^ O.q 8 f V C f.c.(./.`.`.`._._.`.).)./.)./././.`.(.b.h.y.B z 6 H z.` O.{.n.W.yXvXvX",
"vXvXvX9XT. .l H ^ O.r 8 c V B C p.a.f.s.s.f.s.s.s.s.a.a.X.X.i.i.u.y.../ v z a , H +. .Q R O.W.9XvXvX",
"vXvXvX~.Y.@./ _ U U 2 3 s B { { a.x.c.c.x.x.g.g.g.a.X.@.a.a.a.s.f.s.[ V n c 7 * H o._ Y O.$.$.qXvXvX",
"vXvXvXE j | _ I U t k t : a C } X.u.p.a.p.X.X.X.[ X.X.X.p.p.i.f.f.f.y.d z 6 g k , H  .| O.U 2 wXvXvX",
"vXvXvXl.z.l.) Y M U ,. .t < c B B C B B B B Z B Z Z V N B Z B C } } C d 8 6 H d.| r r I | 6.o.vXvXvX",
"vXvXvX>Xl.!.!.z.n.5.<.<.j * p x c x z d f c c d f f f f z d z x x c a a < q Y <.z.z.Y.Y.n.<.o.qXvXvX",
"vXvXvXvXE o.+.o.>.| W W : * : h M M h h s z z s s a a a a p p h h z p < : : q E ) _ ^ Q W U ^ vXvXvX",
"vXvXvXvXE l T v T T R r , * : 7 p p g p 8 7 p 8 4 4 < 4 8 6 6 s h h 8 < : 5 < g j J t t I 2 1XvXvXvX",
"vXvXvXvXE 4 w 7 7 2 : * $ o o @ @ @ @ @ $ @ @ o o o o o o o o o @ o @ o o @ @ $ * , > 3 2 $ vXvXvXvX",
"vXvXvXvXvXqXvXvXvXvXvXvX1X<XvXvXvXvXvXvXvXvXvXvXvXvXvXvXvXvXvXvXvXvXvXvXvXvXvXvXvXvXvXvXvXvXvXvXvXvX"
};
