/* XPM */
static char *_688a2255c6b4977db9aed39da803d97gTPxmaczH7A3iB5H[] = {
/* columns rows colors chars-per-pixel */
"50 50 175 2 ",
"   c None",
".  c #411313",
"X  c #7B2502",
"o  c #5D3B3B",
"O  c #7E6F67",
"+  c #892208",
"@  c #893809",
"#  c #9D3808",
"$  c #923A26",
"%  c #8A480F",
"&  c #8D4411",
"*  c #9D5314",
"=  c #B04405",
"-  c #AB5C0A",
";  c #B15D09",
":  c #B75C16",
">  c #AD690B",
",  c #BF670B",
"<  c #B06819",
"1  c #BF5933",
"2  c #B16439",
"3  c #C24809",
"4  c #D55C06",
"5  c #D35808",
"6  c #DC5B0E",
"7  c #D95D19",
"8  c #DF6D0B",
"9  c #DC631B",
"0  c #DA6818",
"q  c #E96405",
"w  c #E7670B",
"e  c #E3730B",
"r  c #EC750B",
"t  c #EF7A0C",
"y  c #E67C0B",
"u  c #F17D0D",
"i  c #E76A13",
"p  c #E26D1C",
"a  c #E77312",
"s  c #EF7D12",
"d  c #E8791C",
"f  c #C15728",
"g  c #C25E23",
"h  c #C36221",
"j  c #D86628",
"k  c #D46323",
"l  c #C7792D",
"z  c #C6683E",
"x  c #DA6E32",
"c  c #C37330",
"v  c #D97435",
"b  c #9B5651",
"n  c #BB7541",
"m  c #AC6B52",
"M  c #8E6464",
"N  c #A5726A",
"B  c #D97947",
"V  c #DF890F",
"C  c #D3910B",
"Z  c #DA8511",
"A  c #E9890E",
"S  c #F2840E",
"D  c #F58D0E",
"F  c #F28F06",
"G  c #F7990F",
"H  c #F7960C",
"J  c #EC8214",
"K  c #F38E14",
"L  c #EB9312",
"P  c #E89418",
"I  c #F79711",
"U  c #F99D11",
"Y  c #F29A11",
"T  c #FBAE0F",
"R  c #EEB70A",
"E  c #F7B006",
"W  c #FABE06",
"Q  c #EBA71B",
"!  c #F7A719",
"~  c #F8A614",
"^  c #F7B518",
"/  c #CE912C",
"(  c #DA912B",
")  c #D28B3B",
"_  c #D8A52F",
"`  c #FECC0D",
"'  c #FBD803",
"]  c #EEC316",
"[  c #FFC315",
"{  c #FFD41F",
"}  c #FEEC02",
"|  c #FFEC0C",
" . c #FFF604",
".. c #FFFD01",
"X. c #ECC62C",
"o. c #FACA25",
"O. c #FEDF2F",
"+. c #FFE12C",
"@. c #D59E4F",
"#. c #D6965A",
"$. c #C68D60",
"%. c #DC926A",
"&. c #D79170",
"*. c #DE9877",
"=. c #DB9877",
"-. c #CFA06C",
";. c #D5A77C",
":. c #918E87",
">. c #A48586",
",. c #A59D99",
"<. c #B49997",
"1. c #ADADAE",
"2. c #B2A9AA",
"3. c #AFAFB0",
"4. c #A9B5B4",
"5. c #B4B5B6",
"6. c #B7B7B8",
"7. c #B7B8BA",
"8. c #BCBCBD",
"9. c #C7A382",
"0. c #CAAF99",
"q. c #F0AD81",
"w. c #CBB4AE",
"e. c #DABAA9",
"r. c #C1BFBF",
"t. c #CBBCBB",
"y. c #C7BBB6",
"u. c #E3BDA5",
"i. c #CCC4BE",
"p. c #D6C8BF",
"a. c #EBCBBC",
"s. c #ABBDC0",
"d. c #B6BFC0",
"f. c #BEBFC0",
"g. c #BDC1C2",
"h. c #B5C5C8",
"j. c #C2C3C4",
"k. c #CCC4C5",
"l. c #C6C7C8",
"z. c #C7C8C9",
"x. c #CBCCCD",
"c. c #D6CDC5",
"v. c #DDD0CC",
"b. c #CECFD0",
"n. c #CFD0D1",
"m. c #D3D3D5",
"M. c #D6D7D8",
"N. c #D7D8D9",
"B. c #DADBDD",
"V. c #DEDFE0",
"C. c #DFE0E2",
"Z. c #E2E3E5",
"A. c #E5E6E9",
"S. c #E7E8EA",
"D. c #EAEBED",
"F. c #EDEEF1",
"G. c #EFF1F3",
"H. c #F2F4F7",
"J. c #F1F3F6",
"K. c #F3F5F8",
"L. c #F3F6F9",
"P. c #F4F7FA",
"I. c #F4F6F9",
"U. c #F4F6F9",
"Y. c #F5F8FB",
"T. c #F6F8FA",
"R. c #F6FAFC",
"E. c #F7FAFC",
"W. c #F7F9FC",
"Q. c #F6F9FC",
"!. c #F8FBFD",
"~. c #F9FBFE",
"^. c #FAFCFF",
"/. c #FBFDFF",
"(. c #FAFCFF",
/* pixels */
"                                                                                                    ",
"                                                  M.                                                ",
"                                          x.l.f.8.8.j.x.                                            ",
"                                        x.g.8.8.8.8.8.8.b.                                          ",
"                                      x.l.j.l.l.f.8.j.j.j.                                          ",
"                                      x.z.8.g.z.s.h.x.z.l.M.                                        ",
"                                      b.x.4.g.n.g.:.y.b.b.M.                                        ",
"                                      m.m.,.f.N.j.O 8.M.m.B.                                        ",
"                                      M.B.B.B.B.B.B.B.B.N.Z.                                        ",
"                                      B.B.V.V.t.k.C.C.B.B.B.Z.                                      ",
"                                      V.C.Z.S.M o m.Z.Z.Z.C.B.C.B.B.                                ",
"                                    Z.Z.Z.S.D.>.. 2.D.S.A.Z.Z.Z.C.B.n.m.                            ",
"                                  A.S.D.D.D.S.Z.k.C.D.D.S.S.S.A.Z.B.x.x.B.                          ",
"                                  S.D.D.F.F.D.D.G.G.G.D.F.D.D.A.M.B.V.B.B.m.j.                      ",
"                                  D.G.G.G.J.F.D.F.G.J.G.G.F.D.V.Z.S.Z.Z.B.b.x.b.b.z.                ",
"                              S.D.F.G.G.G.I.J.F.G.H.I.H.J.J.S.S.F.D.S.Z.B.M.l.8.d.f.j.              ",
"                      Z.A.A.D.F.G.G.H.H.D.I.R.R.I.R.I.I.I.J.D.G.F.F.D.A.m.7.6.r.<.N 9.c.            ",
"              M.B.B.Z.A.S.D.F.F.J.H.I.T.J.F.R.!.R.R.R.!.P.G.H.J.J.F.F.m.6.g.y.m $ b $.)             ",
"            m.M.B.B.Z.A.D.D.F.J.J.I.T.W.!.J.J.!.!./.!.!.R.R.I.K.G.G.A.f.j.k.n 2 w.B.B.c :           ",
"          b.m.M.B.Z.A.D.D.F.G.H.I.I.W.!.^.!.!.!./.!./.^.!.!.R.F.J.J.m.g.n.-.l c.Z.D.    #           ",
"        x.x.M.M.x.x.M.A.F.F.J.K.K.G.!./.!./.!./.^.T.H.!.!.!.R.S.J.J.x.x.c.( #.e.u.q.    +           ",
"        x.n.b.l.l.8.6.8.B.G.H.K.K.F./.!.!./././.!.S.J./.!./.Y.C.L.F.x.n.;.8 a a s s t 0 3           ",
"        b.n.n.B.M.M.m.j.6.M.J.P.Y.D.!./././.!./.F.V.I.!.!.!.J.B.R.S.x.;.R F S K I G W E r i B       ",
"        M.m.B.    Z.C.M.l.f.F.P.R.J.H./.!././.!.Z.C.R./././.D.B.R.A.0.] ..' U ! ^ ` ..} L r 6 *.    ",
"        m.x.        D.Z.B.l.F.K.!.!.J.!./.!.!.!.B.Z.^.^.^./.A.B.R.V.@.' } } C < { |  . .^ t q x     ",
"        l.            S.Z.x.Z.R.R.!.I.!.!././.R.M.Z.!.^.^.!.M.A.R.c.v r H T > % X.+.o.[ ~ S i 9     ",
"                        Z.m.x.K.R.I.I././././.Y.M.Z.!.^.!.Z.x.I.H.t.x = : P ^ o.O.O.o.Q Z J p 7     ",
"                          Z.z.C.R.H.F.!./.!./.K.M.A.^./.D.x.D.R.A.k.B 5 @ @ * < / _ % @ , J 0 j     ",
"                              S.K.K.A.I./././.H.m.S.!.R.m.D.R.G.x.m.=.w e A ; X @ * - V K d 6 *.    ",
"                                J.I.Z.G./././.F.m.D./.C.V.R.G.x.x.C.v.v q u D L L Y G D t i B       ",
"                              D.J.K.Z.A.R.R./.Z.N.G.R.M.G.P.b.j.M.B.A.a.7 5 4 e y e 8 8 0 %.        ",
"                              F.G.K.Z.B.L.R.K.M.V.K.K.C.P.D.8.b.M.B.D.      1 g h f z &.            ",
"                            S.D.F.G.C.B.H.P.Z.m.D.P.K.D.P.V.f.x.m.S.                                ",
"                              D.F.F.V.N.F.F.M.V.H.H.K.F.G.B.j.m.                                    ",
"                              A.D.D.m.V.F.B.V.F.A.D.J.F.A.V.m.                                      ",
"                              Z.S.Z.n.V.A.V.F.S.b.C.F.D.V.A.A.                                      ",
"                                C.B.n.Z.Z.D.F.M.f.Z.D.A.V.Z.A.                                      ",
"                                V.m.m.A.A.A.V.f.z.A.C.V.B.Z.C.                                      ",
"                                M.b.N.C.C.V.l.8.N.V.V.V.N.V.V.                                      ",
"                              M.b.x.B.B.M.l.7.x.V.m.m.n.N.V.                                        ",
"                            b.x.l.x.m.x.8.6.l.b.x.m.x.x.B.                                          ",
"                          l.l.j.f.j.8.6.8.j.l.l.x.z.x.Z.                                            ",
"                        8.r.f.g.8.8.8.f.g.j.l.j.l.x.                                                ",
"                      6.6.6.8.8.8.j.j.j.j.j.j.l.x.                                                  ",
"                      1.1.8.x.x.x.x.M.M.m.b.b.M.                                                    ",
"                      1.1.6.                                                                        ",
"                      l.5.1.1.1.                                                                    ",
"                                                                                                    ",
"                                                                                                    ",
"                                                                                                    "
};
