/* XPM */
static char *_5a67c51afce4e0ae78a4a7368507d12pE5akaAutikyIZST[] = {
/* columns rows colors chars-per-pixel */
"50 50 163 2 ",
"   c None",
".  c #411313",
"X  c #7B2502",
"o  c #5D3B3B",
"O  c #7E6F67",
"+  c #892208",
"@  c #893809",
"#  c #9D3808",
"$  c #923A26",
"%  c #8B490F",
"&  c #8D4411",
"*  c #9D5214",
"=  c #B04405",
"-  c #AB5C0A",
";  c #B15D09",
":  c #B65B10",
">  c #B85D1C",
",  c #AD690B",
"<  c #BF670B",
"1  c #B06819",
"2  c #BF5933",
"3  c #B16339",
"4  c #C24809",
"5  c #D55C06",
"6  c #D35809",
"7  c #DC5B0E",
"8  c #D95D19",
"9  c #DF6D0B",
"0  c #DC631B",
"q  c #DA6818",
"w  c #E96405",
"e  c #E7670B",
"r  c #E3730B",
"t  c #EC750B",
"y  c #EF7A0C",
"u  c #E67C0B",
"i  c #F17D0D",
"p  c #E76A13",
"a  c #E16D1C",
"s  c #E77312",
"d  c #EF7D12",
"f  c #E8791B",
"g  c #C15728",
"h  c #C25E23",
"j  c #C36221",
"k  c #D86629",
"l  c #D46323",
"z  c #C7792D",
"x  c #C6683F",
"c  c #DA6E32",
"v  c #C37330",
"b  c #D97434",
"n  c #9B5651",
"m  c #BB7541",
"M  c #AC6B52",
"N  c #8F6465",
"B  c #A5726A",
"V  c #D97A47",
"C  c #DF890F",
"Z  c #D3910B",
"A  c #DA8511",
"S  c #E9890E",
"D  c #F2840E",
"F  c #F58D0E",
"G  c #F28F06",
"H  c #F7960C",
"J  c #F7990F",
"K  c #EC8214",
"L  c #F38E14",
"P  c #EB9312",
"I  c #E89318",
"U  c #F79711",
"Y  c #F99D11",
"T  c #F29A11",
"R  c #FBAE0F",
"E  c #EEB70A",
"W  c #F7B006",
"Q  c #FABE06",
"!  c #EBA71B",
"~  c #F7A719",
"^  c #F8A614",
"/  c #F7B518",
"(  c #CE912C",
")  c #DA912B",
"_  c #D28B3B",
"`  c #D8A52E",
"'  c #FECC0D",
"]  c #FBD803",
"[  c #EEC316",
"{  c #FFC315",
"}  c #FFD41F",
"|  c #FEEC02",
" . c #FFEC0C",
".. c #FFF604",
"X. c #FFFD01",
"o. c #ECC62C",
"O. c #F7CA26",
"+. c #FBCB25",
"@. c #FEDF2F",
"#. c #FFE12C",
"$. c #D59E4F",
"%. c #D6965A",
"&. c #C68D60",
"*. c #DC926A",
"=. c #D79171",
"-. c #DE9877",
";. c #DB9877",
":. c #CFA06C",
">. c #D5A77C",
",. c #918E87",
"<. c #A48586",
"1. c #A59D99",
"2. c #B49997",
"3. c #ADADAE",
"4. c #B2A9AA",
"5. c #AFAFB0",
"6. c #A9B5B4",
"7. c #B4B5B6",
"8. c #B7B7B8",
"9. c #B7B8BA",
"0. c #BCBCBD",
"q. c #C7A382",
"w. c #CAAF99",
"e. c #F0AD80",
"r. c #CBB4AE",
"t. c #DABAA9",
"y. c #C7BBB6",
"u. c #C1BFBF",
"i. c #C9B8B9",
"p. c #E3BDA5",
"a. c #CCC2BD",
"s. c #D6C8BF",
"d. c #EBCBBC",
"f. c #ABBDC0",
"g. c #B6BFC0",
"h. c #BEBFC0",
"j. c #BDC1C2",
"k. c #B5C5C8",
"l. c #C2C3C4",
"z. c #CCC4C5",
"x. c #C6C7C8",
"c. c #C7C8C9",
"v. c #CBCCCD",
"b. c #D6CDC5",
"n. c #DDD0CC",
"m. c #CECFD0",
"M. c #CFD0D1",
"N. c #D3D3D5",
"B. c #D6D7D8",
"V. c #D7D8D9",
"C. c #DBDBDD",
"Z. c #DEDFE0",
"A. c #DFE0E2",
"S. c #E2E3E5",
"D. c #E5E6E9",
"F. c #E7E8EA",
"G. c #EAEBED",
"H. c #EDEEF1",
"J. c #EFF1F3",
"K. c #F1F3F6",
"L. c #F4F6F9",
"P. c #F6F9FC",
"I. c #FAFCFF",
/* pixels */
"                                                                                                    ",
"                                                N.                                                  ",
"                                            v.a.0.0.l.x.N.                                          ",
"                                          v.0.0.h.0.0.0.l.c.                                        ",
"                                          l.l.l.l.j.l.l.l.x.v.                                      ",
"                                        N.c.c.c.k.f.c.j.9.c.v.                                      ",
"                                        C.v.M.u.,.g.N.j.6.v.m.                                      ",
"                                        C.N.N.0.O l.V.u.1.N.N.                                      ",
"                                        A.V.V.C.C.C.C.C.C.C.N.                                      ",
"                                      S.C.C.Z.Z.S.z.i.Z.C.Z.C.                                      ",
"                                C.Z.C.A.A.S.S.D.N.o N D.S.S.C.                                      ",
"                            N.M.Z.Z.A.S.D.D.F.G.4.. <.F.D.D.S.D.                                    ",
"                          C.v.v.V.S.D.D.F.G.G.G.A.z.S.G.G.G.G.G.D.                                  ",
"                      j.N.C.Z.A.V.V.D.G.G.H.H.H.J.J.G.G.G.G.G.G.D.                                  ",
"                c.v.m.v.m.C.S.S.G.S.Z.G.H.J.K.J.J.G.G.H.K.J.K.G.G.                                  ",
"              l.h.0.0.x.V.C.S.D.G.H.F.F.K.K.K.K.L.K.H.K.K.J.K.K.H.G.G.                              ",
"            b.q.B 2.u.9.9.M.D.F.G.H.K.G.J.K.L.L.L.I.P.L.L.H.K.K.J.J.H.G.F.S.S.                      ",
"            _ &.n $ M y.l.7.B.H.H.K.K.K.K.L.I.P.P.I.P.P.J.J.L.L.L.J.J.H.G.F.S.S.C.C.C.              ",
"          > v C.C.r.3 m z.x.h.D.K.K.K.P.L.I.P.I.I.I.I.K.K.P.P.P.L.K.K.J.G.G.D.S.C.C.N.N.            ",
"          #     F.D.s.z :.M.h.B.K.H.K.P.L.I.I.I.I.I.L.I.I.I.I.P.L.L.K.J.J.G.F.D.S.C.C.N.m.          ",
"          +     e.p.t.%.) b.m.v.K.K.F.I.I.I.I.K.P.I.I.I.I.I.I.I.J.K.L.J.J.H.S.V.v.v.N.N.v.v.        ",
"          4 q i d d s p r >.M.c.H.K.A.L.I.I.I.K.G.I.I.I.I.I.I.I.J.K.L.K.J.C.0.9.0.l.x.N.N.v.        ",
"      V p t W Q Y U P D G E >.c.F.L.C.K.I.I.I.L.C.H.I.I.I.I.I.I.H.P.L.J.V.9.l.M.V.C.V.N.v.M.        ",
"    -.7 t P | X.' / ~ Y ] X.[ w.D.I.V.G.I.I.I.I.S.S.I.I.I.I.I.K.J.P.P.H.0.c.V.A.S.    C.N.B.        ",
"    c w y / .... .+.1 Z | | ] $.C.P.Z.F.I.I.I.P.S.C.I.I.I.I.I.K.P.P.P.H.x.V.S.G.        v.N.        ",
"    0 p D ^ { } #.o.% , R H t b b.P.F.N.I.I.I.I.D.N.P.I.I.I.P.L.I.P.P.S.v.A.G.            c.        ",
"    8 a K A ! O.@.@.O./ I : = c a.L.L.v.S.I.I.I.D.N.P.I.I.I.I.P.L.P.K.m.N.S.                        ",
"    k 0 K < @ & ` ( 1 * & @ 5 b l.D.P.G.v.G.I.I.D.N.P.I.I.I.I.H.K.P.S.x.S.                          ",
"    -.7 f L S - * @ X ; S r e ;.V.v.J.P.G.N.L.I.G.N.L.I.I.I.P.D.L.L.D.                              ",
"      V 9 y F J T P S F i w c n.Z.v.m.J.P.Z.A.I.G.N.J.I.I.I.H.S.L.K.                                ",
"        =.q 9 9 r u r 5 6 l d.D.Z.N.j.m.P.K.V.P.K.N.S.I.I.P.D.S.L.K.G.                              ",
"            =.V g j h 2       G.C.V.v.h.G.L.Z.K.L.Z.N.L.P.L.C.S.K.K.H.                              ",
"                                G.N.c.h.A.L.G.K.P.F.N.S.L.K.C.Z.K.H.H.D.                            ",
"                                    N.l.C.J.J.K.L.K.S.N.H.H.V.Z.H.H.G.                              ",
"                                      N.A.D.G.K.G.D.J.Z.C.H.C.V.G.G.D.                              ",
"                                      D.D.A.G.H.A.v.G.G.Z.D.Z.M.S.D.S.                              ",
"                                      S.S.C.D.G.D.j.V.G.F.D.S.N.C.S.                                ",
"                                      A.S.C.A.A.D.x.j.Z.D.D.S.N.N.C.                                ",
"                                      S.Z.V.C.C.S.V.0.x.Z.S.S.V.m.V.                                ",
"                                        C.V.N.V.N.Z.c.9.l.V.C.V.v.m.N.                              ",
"                                          V.v.v.M.m.M.l.9.0.v.N.c.x.v.m.                            ",
"                                            S.v.c.v.c.x.l.0.9.0.l.l.l.l.x.                          ",
"                                                v.x.l.x.l.l.0.0.9.0.l.l.0.0.                        ",
"                                                  v.x.l.l.l.l.x.l.u.0.0.9.7.7.                      ",
"                                                    N.N.M.N.N.N.v.v.v.m.9.7.3.                      ",
"                                                                        9.3.3.                      ",
"                                                                    3.3.3.7.x.                      ",
"                                                                                                    ",
"                                                                                                    ",
"                                                                                                    "
};
