/* XPM */
static char *result[] = {
/* columns rows colors chars-per-pixel */
"50 50 49 1 ",
"  c #1E2526",
". c #202627",
"X c #212728",
"o c #252A2C",
"O c #282D2F",
"+ c #28302F",
"@ c #292F30",
"# c #2D3233",
"$ c #2D363A",
"% c #2F3839",
"& c #313536",
"* c #323738",
"= c #353A3B",
"- c #393E3E",
"; c #3A403F",
": c #343D41",
"> c #3A3F40",
", c #364043",
"< c #3D4243",
"1 c #3F4648",
"2 c #414646",
"3 c #424847",
"4 c #424748",
"5 c #444B4B",
"6 c #494E4F",
"7 c #49504F",
"8 c #474F50",
"9 c #494F50",
"0 c #465251",
"q c #4C5354",
"w c #4E5857",
"e c #4E5758",
"r c #4E5959",
"t c #515C5C",
"y c #4E615E",
"u c #53615F",
"i c #535E60",
"p c #556462",
"a c #586665",
"s c #576865",
"d c #596967",
"f c #5B6C6B",
"g c #5D716E",
"h c #5E7171",
"j c #617575",
"k c #637A7B",
"l c #657F80",
"z c #688485",
"x c #6D8F92",
/* pixels */
"5<=**&&*&*;26ugjjkzzllkkfqfjhfgffffjhhjkkjkteiajzx",
"32<&*&&**=-36epjjkkzljjjf6tffffffffjkkjjjfji6uafll",
"323=#&#&**=;3eujjjkkkhfff9qaaaffdfgjjjjhhffi2adflz",
"3223*###**-23wuggjjjjhaaaqqttafadffghhjhfffi5ahkll",
"3<-33&+&&*;;5qtdffghfiaadwqwtaaadfgfgjjgffat2qafjj",
"32--32+&&=2226taaaffaatit37uitttudgfaaauaatt;6taah",
"3;--25=&*;-<25qtttpitteeq-6tutwqqtaattuuuttt;5etia",
"22-=232**=--<36qqtiteq9qe23wqq77qq7wtttutttt;2etua",
"22;23323---=-<57q9qe6636q229q9667777rwqweqqe=:qttt",
";;;;33;33-&&&-37656653233;5996635575577766qe*=5qqq",
";---;;;233=&#=5732233;,<;-2q6333353533655669*=2569",
"-=-=;;;;-;2&%=<<2;2;-===-==9e536335553552559*@2<9q",
"=&-=--;;-=2;-3<--=======,<==>=&<51;;====****@+,=26",
"=#=---;;---;3;=##&**=$%=;=15<&O@%&&###&#&&**%o--=-",
"&#=-----===-36=#$**=%$%*=15rq;&=wyyyrwqq837u5@O#&&",
"&&===--=*&&-27q55q9ewr055qqrw<#5gfdfffsssuuup<XXOO",
"&&=-*#&=&&&*;3twisppadautteq5*O0dssdgfddssuapw##56",
"=&=--&&*&&&&=<wwrpuuuutupp955*O5tuudddadssddpe==ti",
"=&==--&&####*;qwrruupptttt954*O5qtaadauaasfdtw=*tt",
"=&=*--=&##&&*-7qqruutttq95552=O5qtttauwauaddt6%&ii",
";*;----=&###&=7qwqqteeq95442<*O<e9etteqtttppt9&#ad",
"-&----;;&O##&=735522322222>>>#o>e996556eqqeteq*Oti",
";*----;;;#O&&*2;====;;;-==*==@o=69655559766q95*O9q",
";&--;;;;<2=O&*=*&#O&****&&@@@@o*25222544566965*&96",
";&-----;<37;+#&+OoooOOOOooo@###=-;-=-21425qq73&O25",
";&-=*---;257=+++O+XO#+##&=<52=#*,=====>>-<675,#O=-",
";&-=&&*-;3565;15<O.#,5159qq95>O@=$$:**=*&*;22=oX#O",
"-#=&&&&-;23355wy8=X#5wpsptte6>@Xoo#,>==$#OO#*O #=2",
"&#**&#&-;232260uw1X=qrpdiittq<@o=1yspry1#@oXX%<0tt",
"*#*=&&&*-;2;;5raw1o,iadhfiete=o@phhhhds0#$$<0yyuat",
"=*&*=&&=-=-;;20t01o2taaaaieee>o*shffhha1+,wpuwwuau",
"=--**=&====;=;q75=O5eritritt9>O=ysfpfgs<@wrrtwtuss",
"==--%&=======;762&@6e99qeeeeq4@>qiietit=O5qettttte",
"==*-;&=-=*=*=;552*@465559eeeq4@-qeq9eet*o4qeeq9966",
"-=*=<1==****=-25>&#>14426qeeq2@=9qq9ee9&O>9q995524",
"-===<31=&***=-25>@@=><2<29qq62@=999q9e9&o>69955566",
";;==22<;;#&*=;1<*XO&==>>=>>=**O*5659999&O-56942542",
"<;--><--;<#&==-=#oooO@&#@OooOoX&4569692&o-2552>><>",
";-=-><--;,<%*-=#OoX XXoXXX   .X#>24554<#X*->2<---=",
"--=->>===;<1=*#ooX. ooXo@Xo@#@o@--->2<=#.&--*&&&**",
"=====;;===-;22-#OO@@*>>*&X#44>OO#*&##*#@o@#@@@@@@@",
"&&=&=;==*=---55514446e94:o>e9*ooXoOXOOOXoOOOooXoXo",
"+&&&===***=;=158999eqte9>X5ie*OO@#OXXooX.ooOOO@@##",
"+&&**==****=-<5qeeeeeiee4@qii965454*@&OO@&****==--",
"&&#&&*=*=====15qeeeeeeee9&5itette99:#6449eq9999999",
"&&&&&*=*==-==<8reeeeteeq5&4eeeeeqq9=#qiiiiiiiiitq9",
"====**====-=*,0qqeqeeqeq4#>e659tqq6#O6eieitqeeqeee",
"===-#*==--===<8q999qqq994#>55459q95#X>6eitqqeeeete",
"&===&#&&&====;66655579662O&<5252552@X-59qiq9999q9q",
"&&=-*&&&&&=-=;3332222655=O&25225552@X*596qq999q99q"
};
