/* XPM */
static char *result[] = {
/* columns rows colors chars-per-pixel */
"50 50 63 1 ",
"  c #1F2627",
". c #212728",
"X c #252A2C",
"o c #292E2F",
"O c #2A2F30",
"+ c #2D3333",
"@ c #313536",
"# c #323738",
"$ c #353A3B",
"% c #393E3E",
"& c #363F42",
"* c #3A3F40",
"= c #374043",
"- c #3D4242",
"; c #3F4A4A",
": c #414646",
"> c #414847",
", c #424748",
"< c #444B4B",
"1 c #484E4E",
"2 c #45504F",
"3 c #474E50",
"4 c #494F50",
"5 c #455151",
"6 c #4C5354",
"7 c #4D5857",
"8 c #4E5758",
"9 c #4F5959",
"0 c #515C5C",
"q c #53605E",
"w c #535F60",
"e c #556362",
"r c #586666",
"t c #576966",
"y c #596967",
"u c #586768",
"i c #576A6A",
"p c #5B6C6B",
"a c #5E716F",
"s c #5E7272",
"d c #607575",
"f c #627877",
"g c #607778",
"h c #637B7B",
"j c #657F80",
"k c #668284",
"l c #688587",
"z c #678688",
"x c #698689",
"c c #6A8A8C",
"v c #6C8E91",
"b c #6E9295",
"n c #6F9598",
"m c #709397",
"M c #70969A",
"N c #71999E",
"B c #739DA2",
"V c #75A1A6",
"C c #76A4AA",
"Z c #78A7AD",
"A c #78A9AE",
"S c #79ABB1",
"D c None",
/* pixels */
"1<444-X.o-0w093<<,,,<31,*O+:,,,,<>>@o+@$$@@@$$%#@@",
"66884*..O:0ww98844448443,@#,<,,311>@o@$$$@@@@+@%$$",
"46661*X.O-80099878888884<@*8436966<$o@$$%$$$$@@%$$",
"<464<-o.O<8889w0088899864#<9w890661%@$$$$%$$$@@$$@",
"$*-*$@.X+,64<16898888088<O<w03,,->:@+%%$$$@$$@@@@@",
"OOOOOo.XO#*:*%%*,,<3688<*X&w6$ooXooXo$%%$@@@$@@@@+",
"XXXXXoX...XXXXXXXOOO#**#@.@,<*oX++@+$@$$%@$$%@@@@@",
"#@+++@Oo....oOooXX...XXXX...OX.O%%---%@+$$$$%$$$$$",
"*$**%%#OoXX@#$$#OXXXXOOOOXXXXX.O>>>1>%$$@@%$%$$%%%",
"::,,<,:$+oo%-:,<$XX#$%-**&:**#O#11>1>%$@@@@%%%$$%%",
"<<44<16<#oo:1661-+O%::,:<4886,O#1111>:$@@$@$%%$$$%",
"11460072$XO<6966,#o,1<<148886,@#1711>%$$@$%%%%$$@$",
"6670ew75$X+48876<#O<688888886<O&7qq71-$$$$%$%$$$$$",
"w0erpy02*o$49wte8:X:0errwww88*oOqayq1>%%$$$$$$$$$%",
"0qrpdp0<*O#1wuaa9;X*8erapww88&Xo2qtq7>-%%%%@+@$%$$",
"80tteq7<*XO4etpt8*.O18wrww806*oXo+%->1-->-%$@+@@$@",
"#$%%%#$++oo$,<1,&O.O%:-:,141<%OO$@@@@%>>>>%%+@@$$@",
"-*%%$%&#@oXXXoooXX.OooooOO+###+#%%%%%@%><>%%$$@$%$",
"<<,,<11,;oX+%$$$@OO@@##@@@++Ooo#>>>:%@+%->$%%%%%%$",
"666685663+X#,,1,::-*-:::**%$$+X$111>-%@@@%%%%%%%%$",
"0q9etq669#X#16668867777<,::;:$o*6666<%@++@%%%%%%%$",
"999qe99q0$X=469800qeq007961,:$X,67071%@++@@$%%%$%$",
"9;5755576#X%6600eeqqqeeqee6<,$X<00qq6-@++++@@%%$$@",
"#+++@++#+oX#18080e0qeeq979666*+,yyqq6-$$@@@$@@$%$@",
"@$$#@@+ooXXO$%$$&&&--%%$*,396=@%60776>%$@@$%$@$$$D",
"==%$$$$$@oXXo@#O@####@@$%%-,=#o@%%%$%>-%$$%%%%%%%D",
"5<:::-*%#+Xo%--:*%%%$$%%$%$-<;%;1:::-$$%%$%%%%%$%@",
"7666111<:#X@::16<:,,:-%-=%-82<<<>>>>:$@$%%%--%$%$$",
"000866446-o@148844161<:,1-:661<<11>>:@@@$->:---%%%",
"ree088000,O@1680890086160-:766646611>-$$$$%>-<:%--",
"ppyr0yay8,+$88wrwwreq0006-<qqq7770e01>-%%%@$-<-%%-",
"dfffhfaae1#1ryasauaapqqqr610qqqqryyr61>-%$@@@>-%%:",
"hjlhhhfap6$6pssffsdddprup6400ryrppur06:-%$+++@:*%:",
"ccclhfdsa6:wsddfhfhjjfsaa18prppppyrae7:-$#@++@@-::",
"mmmvmmvbx81rfhhhhhhffddda6ujhspppaaae7<:%###+@$@::",
"NNBVVVVZZf0fvmmmnvzkhfjxkrlBBmjhllljfu1,:$##@+@$@%",
"BBVZSZZVBjaZBmBBBBBVCZCZMpbBBBBBBBBBmz0<>%$$@+++@@",
"BBVZZZVVZldBNBBBBBBBBBBBzdBBBBBBBBBBNNz6-%%%$@@@@@",
"BBBVZCVVSxfBBBBBBBBBBBBBvjBBBBBBBBBBBMMs:--%$$$@@@",
"BVBBBVCCSlhSSBBZBBBBBBBCMdCBBBBCBBBBBBBNy>:-%%%@@+",
"CCVVBBnkfascmmmMBNMBMbMNbwpjlzcNNMmbvMVNMp::>:%@$@",
"zczzzjjcvvvjhhjjzhsshzjghjypfhppfffhjhhfhj7><>-%$$",
"BnbnNNNBBBBBCjjZBbMbCCBNBBjxBVNhNMNNNBVvjZMt1<:%%@",
"BBNBNBBNBBBBZlhBBBBBBBBBBBckBBCzbZBBBBVVhmBmt1:--%",
"NBBBNNNBBBbzdpkchsjcBBBBBBnjBBNmxAAVBBBNxjVNMq->::",
"cnBVBBCBjskzvmZZBnchhBCBbbvszNMNjcVmmMMBNkvMvc2:>:",
"ispjkzjphcvvvvMMBnnbhsgssussppkseqaffhjjxhypyaq111",
"jkjsbzjhjsgjjkhdhhhjzbMvvvvvzuhjjfcbvmljMvclxcch06",
"vvcgcczczclzccssipcvcvbvvvvvjfvxvckmmmbjmvbccvcch0",
"vvzszvccvvcchphbnsszbbbnmbvvfjmccckkcmMjcmbvmvckld"
};
