/* XPM */
static char *result[] = {
/* columns rows colors chars-per-pixel */
"50 50 66 1 ",
"  c #202627",
". c #212728",
"X c #252A2C",
"o c #282E2F",
"O c #2A2F30",
"+ c #2D3233",
"@ c #2F3639",
"# c #2F383A",
"$ c #303536",
"% c #323738",
"& c #353A3B",
"* c #393D3E",
"= c #373F41",
"- c #393F40",
"; c #364144",
": c #3D4243",
"> c #3B4847",
", c #3C4648",
"< c #3F4A4B",
"1 c #414646",
"2 c #424748",
"3 c #454B4B",
"4 c #484E4E",
"5 c #42504F",
"6 c #49514F",
"7 c #474E50",
"8 c #494F50",
"9 c #475251",
"0 c #4B5353",
"q c #4D5857",
"w c #4E5758",
"e c #4E5959",
"r c #515C5C",
"t c #53615F",
"y c #535F60",
"u c #556362",
"i c #586766",
"p c #576965",
"a c #596867",
"s c #5B6C6B",
"d c #5D706F",
"f c #5D6F70",
"g c #5E7272",
"h c #5F797A",
"j c #607575",
"k c #617877",
"l c #617778",
"z c #637B7B",
"x c #657F80",
"c c #668283",
"v c #688586",
"b c #678789",
"n c #688788",
"m c #6A8A8C",
"M c #6D8E91",
"N c #6E9295",
"B c #6F9599",
"V c #709397",
"C c #70969A",
"Z c #71999E",
"A c #739DA2",
"S c #75A1A6",
"D c #76A4AA",
"F c #78A7AD",
"G c #78A9AF",
"H c #79ABB1",
/* pixels */
"33803& XO2wew82222:12322&O$2211222:OX&383w88888888",
"09004&  $3yyyww833348887-O&23223381O *78wr08088w0w",
"80w02& X$2ryrwew0w00w0w82$17338w003Oo3wrwyr00wwwww",
"48003* X$3rrrerrwwwewww82$3wwwew008$$0erwrrryyyww8",
"1231-%XX&300800rewwewyww,+wyrw88343$O*&&-:1-:::::1",
"OO++OoXX$*2211348888wew3&o8y8&++O$OXoXX .oooOOoo++",
"XXoXoX XXXO+ooXo$$&&133-$.-87%oXo+OoOOOX.$OooXoooX",
"$+OOoOXX  X XXo XX.XXXXOO.X@$OXO&***1-&+.$&&%%$+%%",
"*&&&&*+XXXX+%$$+XXXXXXooX... ..%1233331OX&-111*--*",
"-11111*$oo+&*111OXX$$&*&$=-%+$.-3340883OX*4633:21:",
"2443333:$X$13444*o+*-12:280831o-8890000$o:60632333",
"4480qr03$X%30r09:$$222328www8:O-9q00www$o26ww66533",
"88wrurq3$ *8ww051+$80w800www01o-qtteeuy%o60erqeryw",
"rrttsuq5&X-0wrue8&O3ryiyyyy0w-.-pdsaggi>o3qutqetii",
"rtuddaq2&o*0uadse=X2yiifiyyw8-.%udffsap<+#&><qrtyu",
"russapq3*X&9ussp0&.*8riiyywy8-.o+;<q93<;OooX++$:4q",
"=:22:::%+X+<0er6;o.$13460q003&XO++$&%$%%$$*:1% XO$",
"**&%%$$++O.XoooooX.ooooo+$&**&$&:*&***:*:14431Oo:1",
"23223331:X.$%$$$+OO+$$$$+oooooo&111:1113240843$o33",
"66490605<oo*2111***-1-*****&&oo&66663340860w64$+8r",
"rrrtteqq6+X*4060q06090432111*$X1000qq66twwttr6++ui",
"rqrtteetq+o:0q0rrrttttrq04222%o36ttttttttiaar6$%ut",
"q5qqq0qe0+o<0qrrtttttutryr432$o9qtttpptsiiaatq&%ru",
"&###%@#=%oX*00truutuuptrrr0q3&oqdasadspsiitai0o$32",
"$$$$$$ooX X$:1:*>:>3<:1*149e0;+3itattpttwqqtq$.oo+",
"-:*&%&&%+oXoo+$+++@&%$$&**23:@o@*:**&*&&$%&:&X&&&&",
"3311:***$+X+*::*-**&%&****&:2-&2111::*:**-*;++1*34",
"66664422*+X%:1462121:****&2q6332131431332646@$1340",
"rwr000606*X*48ww444442133-3666234444460066q0%&4000",
"iutr0rww0*o*88rwqwrr0840w:3q06666660rrwrrw0r&1wrrt",
"siitrisiw1+*wriuyyuyrr0r6*6ttrqqwtiirrrrtrrr&3rrua",
"jjkkkjdsr1%8iisfssssiutut46rttttissssssssiur10uafd",
"zxxxzzjdi3*rsdjjjdjkjsisi80rriiiissfgjjjssir1islxx",
"vMvxzkdja31idjjjkzzzzjfsa3yiisssssslkkjsfsju3uiszv",
"VVVVMmmmj66sjkzzzzzzlkjja8fzksssssflkkkzzjk0rrazmV",
"VZAASDDFSiuzmVVVNbczkjzvzimAZmkzccvvmNCCVVvtlzmCAA",
"ASDFHHFSZjzDZVZSAAASSDDHnjZAAAASAAAAZSSZAHFaCGASAA",
"AASDFFSSSkvAASSZAAAAAAAAzxAAAAAAAAASZSSAAAFzcGASSA",
"AAADSSSDHkvASZSZAAAAAAASxmAAAAAAAAAAAZAZAASBaDSAAA",
"AAASSSFFHkmGDSDDAAAAAAAFnvDAAAAASAAASASSAAAFgBFSSS",
"DADADANckslVZZVZAZZAZBBSnrjvnbVAAZVVVAGAASDHlsDFSS",
"MmbbcxxnMMmzkzzvczjgxczlzlislkajkzlllxzzcmmbxgmNvk",
"AMMBZAAAZAZZZkMDCNMCADAZAAlNZSMxCCZZZAAxbHSAAZAGSj",
"AAZAZAAZZADDDkmAAADAAAAAAAxNAASxASAAAADZzAAAAAAAZd",
"ZAAAAZAAZZVvjjvvlhxMAAAAAAMxAAAmNHSAAAAZxnAAAAAGAk",
"MBAAAADBzkcvMVHSZNczmAAZNMMfMZCCzVAZCCZAZxACMMVAGM",
"sfgxcbzscmVmMMZZAZBMhllgfsffsgcfyuklzzxxngaasssfds",
"xblxNczzzkzzccljzzzzmBBMMMMVzixzzlVMNVzvVNnvvmnxcz",
"NMbzmnnmbbbnMbfgihbmMMNMmMMVjxMmVnnCVCmvVVVmMMmmvv",
"MMxgMMmmMMmvgscBmghbVVVVVMMmfmMmmmzvmVCzMMMMMmmvvv"
};
