/* XPM */
static char *result[] = {
/* columns rows colors chars-per-pixel */
"50 50 43 1 ",
"  c #1F2527",
". c #212627",
"X c #212728",
"o c #252A2B",
"O c #292D2F",
"+ c #2A2F30",
"@ c #2D3233",
"# c #2E3639",
"$ c #313536",
"% c #323738",
"& c #353A3B",
"* c #393E3E",
"= c #3B403F",
"- c #343D41",
"; c #3A3F40",
": c #374144",
"> c #3D4243",
", c #3F4648",
"< c #414646",
"1 c #424847",
"2 c #424748",
"3 c #444B4B",
"4 c #484E4F",
"5 c #47504F",
"6 c #4A504F",
"7 c #494F50",
"8 c #475252",
"9 c #4C5354",
"0 c #4E5857",
"q c #4E5758",
"w c #4F5959",
"e c #515C5C",
"r c #54615F",
"t c #535F60",
"y c #556362",
"u c #586666",
"i c #596867",
"p c #5B6C6B",
"a c #5D716E",
"s c #5E7272",
"d c #617575",
"f c #627778",
"g c #637A7B",
/* pixels */
"dppppppipiupy<9psppsdggfffddstq91<>*%$$$@$$$+*1<11",
"dpppiiiipreye<epppppdfffdddspue9<<*&*$$$@@$@*1<<1<",
"ppapiiiiueww03euuyuupsddssssptq9<>=*$$@@@@@*1<=<1<",
"ppppurttrrew9<euuueuuuppuuuuue96<<>=*$@$@@=4<==>1<",
"ppurw0wwrurre&<9eeeruyuuuuyyyq64<>>=*$$$+=6<**==<<",
"ee00969000ee8&<qe99qeqeureqqq632>>==**@@*13=**==<=",
"9666666696994*3e964669eeqq9964<<==***%%<><3<===<<=",
"6644463447993*2861<14696666643>*&%%*%*11><3<=><=<<",
"4414313135695;>><<><1333422472*&$$$%=31<=<<>=*====",
"1111,33353601&&*****>><,<<<24<*$@$$=<<<>===****&==",
"231335,=,991&%*&**&&&*=>**=>*<<$$$<<**=>==*&*%%*&*",
"&==>3=@+%=%=;*>>&*&%%%%%&&*&&>3>=><=*&**=>*****$$*",
"&&==%@O+@:55,>&*&%@@###%$@@@+&><1<**&*==>=****$@$&",
"utrre,+#:500551*&%&&::::&*&$$*46<*$$$&&==****%*@$$",
"pipase@@=50e99w859wtrew09w949q92=*$$$%%=*%%*$**$$$",
"iuuuie= %,598wyeetyiiyyyyuyeqq4>**&$$%$&%O@$***$$$",
"uyeew8&.%1247ettytyyrrrrere00e<*&$$$@$$$$+&=*%*$#*",
"yyye97&X%2224qeewwyyrrureee900=*$@@@$@@$$===*%%$%*",
"yee998&X%<<2223489wweeeeew0960>&$@@$$$+$&&==*$*$%*",
"ww97q3$o%;<<22<2388w09e9909969>%@@@@++$====&**=$%>",
"89949;+X@*;;;><<<<12312>223234=%@@@+o@===&*****$%=",
"34444;@o+$*%&&&&****==&&&%%&=1*$$$+O@*>===***=*$&>",
"<133<%+o+oo++++$@%%%%$@++@@$$*$$@O@>,>,=***===*$&=",
"&***;*@+$@$++ooooooOOOooooOO+$@@+%553=>=&=&=***$&>",
"&&***&+@*;22<;&$@+@@@@@o.+O+@+O+=666<=,=*&&&%*=#&>",
"&$%%%$X@;<379qq953,3>*@o.@*133=:36131&,=%%%%%&&#&>",
"-#+oooX@;27qqwttuyrw81@ O&3ee0513133<==&%@$@%%&@&&",
"tq8:%+X@;qwwtwtyipyeq8%o+39ee653><11==>&+$@%%%&@@@",
"aaase%Xo-7wtewyuaauyye>o@,9rre5,>>>>*&*&$@$$%&%@#&",
"iasdy;XO;7qqweyuuiyuyw3O+38wr01====****%$$$%&%@%&*",
"ipppe,o+>8qqweeeeerew95+O>35961=*&%&%**&$$*&%%**&&",
"weteq,o@288www009090095% =>355>=*&%&&&**%&$$*=&&&&",
"9qe992o@37qqqqq94424443&o&>342>*;$&&%%;**@$;;&&&&&",
"88997>O@<99qqq94<<22<>>$O$>342;*&$$$%*&%%;>>;$$&**",
"74447>o@<479997<;<<<>>*@O+&222;&;$$&%%@%>222;&%&=*",
"93443>o+*&*;>>>;*>>**&&O.O$><<>&$&$$@%>;>>2>*&&;==",
"94332&oo+OOO+++@$$$@++OOXo+%*;;&&&%$;;;**;;,;**;==",
"423<>%o .  ...oooOooo...XOO+$&*&&@$>>;;;*;;;;&*;==",
"===;*@ooOOOXXXooXXXXXX  XOXoO$;-$;<>;*;%**;;;&&*==",
"$%&&$+oO%;<>$oo+$$%$@OOOXoOOO$;;>>;;;%&;**;&**&%&&",
"O+++ooo+%779,OX%;2774;;<;--->,3<=*=*%%&&&*=&%&&%%$",
" XOOOoO++3tt9+X;27qtt7777777443;*=&&%%$%&*&%%$$$$@",
"%;>;-;>>27ttt%O;7qqtqqqq99qq432*=*&$%%%%&*&$$$$@@@",
">4777qqqqtttq%@7qqqtqqqqqqqq93<**&&&&%%%&*%$$$$@@@",
">77q9qqqqtqt7%%79qqqqqqqqqqqq72&&*&&&%%%&&$$%$$$$$",
";7q9qqqq77993%#37q7qqqqqqqq9972;$&&==&&&&&$$&$%%$%",
";3799q932237,@#27979qq7qq747772&%&&=&*=&&&$@*&&&&%",
"$2773432222>;O%2777797774447772&&&&&&&&%%$+@&**&%&",
"$<322222<22>&O@*23477322222223<&&&&&%$$$$$@$%=%#%%",
"$;2>222<<22<&X@&<<2<>;>>>><<<2<&%&=&%@@$&%$==#%$$$"
};
