/* XPM */
static char *result[] = {
/* columns rows colors chars-per-pixel */
"50 50 66 1 ",
"  c #212728",
". c #252A2C",
"X c #282E2F",
"o c #2A2F30",
"O c #2D3233",
"+ c #2D3538",
"@ c #313536",
"# c #323738",
"$ c #353A3B",
"% c #393E3E",
"& c #3A403F",
"* c #363F41",
"= c #3A3F40",
"- c #364042",
"; c #3D4243",
": c #3C4749",
"> c #3F4C4D",
", c #414646",
"< c #424847",
"1 c #424748",
"2 c #444B4B",
"3 c #484E4E",
"4 c #47504F",
"5 c #4A504F",
"6 c #474F50",
"7 c #494F50",
"8 c #475252",
"9 c #4C5354",
"0 c #4D5857",
"q c #4E5758",
"w c #4E5959",
"e c #515C5C",
"r c #4F605D",
"t c #53605F",
"y c #535F60",
"u c #556362",
"i c #586665",
"p c #576866",
"a c #596967",
"s c #576A6A",
"d c #5B6C6B",
"f c #5D706E",
"g c #5E7272",
"h c #607575",
"j c #627877",
"k c #627778",
"l c #637B7B",
"z c #647F80",
"x c #668283",
"c c #688586",
"v c #678688",
"b c #698789",
"n c #6A8A8C",
"m c #6C8E91",
"M c #6E9195",
"N c #6F9498",
"B c #709397",
"V c #70969A",
"C c #719A9E",
"Z c #739DA2",
"A c #75A1A6",
"S c #76A4AA",
"D c #78A7AD",
"F c #77A8AD",
"G c #79A8AE",
"H c #7BADB3",
/* pixels */
"@@$%@O#@@#$%$&111,,,1722=oo,2111,1,@ @173qq7777779",
"$$$%OO$#$$$$#;38337797771O#11122373@ #27qeq7q79qq9",
"#$#$@#$%%$%$#;499q09qqq72@=7727w997#.1qyyyqqqqqqqq",
"@@@@@#$@$$$$$;30qqqqqqq97#,weqeeq99=X7qqqqeqywqq99",
"OO@#@$$#@$$$%:38q9qqqewq2O2yy772,21#.#Oo##$=$%=%==",
"O@@##%$$##$%%;2377679eq7=.=yq$oX.XX..... ......XXX",
"##$$$&%$$$%;;<;#Oo##$;,$# O22=X.X@OOO@Oo oOoooX.XX",
"%%$%&%%%%%;-#%OX..    ......oX.X%===;,%@.o$=$$##@#",
"&&%%;;%%&;$O$%%#o.....XoX..  . o,,23221#.@,,,,;%==",
"&%$%;,;%$####%;,#..@$%==*===$$oO3329977$.%,332,<2,",
"%%#$;<%$#$##$&;3;Oo%;,1,,7qqq1o$7738999%.$29933<12",
"$$#%%#$%$###$&<31#o122227qqq92OO70q89ee;.=90008877",
"$$%%@##$$$$$%&551$o2qqqqqqqqq2o#wuuuuiu:.29qwwwtyy",
"$$@#$#@$%%%&%,9e7,.;eyuiyyyq9;.Ougfsdgd8o=6uuwwrii",
"#O#$@@@$%&<;;<0tw,.=wuigayyqq;XX2pdddiu8++O+->0eyu",
"#@$@@O@$&&2<<35t9$.o2qyiyyqy7;o .+*:>-:*oXXXOo.#;1",
"&@%###$&&<24:$&;*o o%;;;36772=oo$$@#%#$$##=11=o o@",
"&@%%%%%&&<4&OOOXo...XXXXXoO$$#O#%%%$%%;,,,7971#.;2",
"%@%%%%%&&<&XO@%#@OoO@#@@@@oooo.@,2<,,122237772%X13",
"%#%%%%&&&XOOO$3,;;=;,,,;;%%%%O.#55952229979q07%.2e",
"%#%%%%%$OOOO@%559q900093211;;$.;800we05teetie9%.ei",
"$@#$%&#@OOOO#&899eeuttu009621%.:00ttitttiyaau9%Oqt",
"#@$%&@@@@@@@#&00euettuteyu92<$.10ttpaaaaiiaaie;O0e",
"@@$%#@$$@@@$&3w9qyeuuieeqw909;X<fdaadfaaiuuuu0@.;=",
"@O$$&%&%$$#%,3&$$**;;%%$=:20q;O%qeettw00883eq$.oo@",
"@@$%%%&&%%%,,;%@#######$%%;1;+oO%%$$@@@@@O#$#.$%$%",
"%$$$%%&&%%,$@&,&====$$$%$%$16<*<22<,<,,,;;,1$.;=33",
"&&&&&,&,<;$@@#<32,111;=;;%;9823<<222<<233377=@1233",
",;,&,2,<;$$$$=29777752123,,98332555595598999=#2q00",
";;&&;<;$#%%%;,39qqyeq9590,,w0995559qeeeeeewe,%qeeu",
",;%%,<@@#$=,,29yyyiuueee0,<tttw0quaauuuuutte,;eeui",
",,%;,#OO@#=,19eaddfgdieui03eetitidddffffdait23idfh",
"<,,;@@@@@@$;<0tdhghkhfadd97eyiiidddghhhhddai2wdglc",
"<<,@@@O@@@&<<eihkklxxkhff2efaddddddhlkhghdga3eidlx",
"2;@@@@@@@$,<5afjlllghhfhf0iczgdafdfkkklzxlji9iikmB",
",@@@@@@$$&<2elmBNMnvxxcnnucZZCxxnnnnnNCZVCBdgnnCCZ",
"@@@@@@@%%%,9lBCCZZZZASSFBdBZZZZZZZZZSZZZZSGzzHAASZ",
"&@@%%@$&,;,hVCCCZZZZZZZZnhZZZVZZZZZZZZZZZZAMdFAAZZ",
"%@@,%%&,50jCCCSZZZZZZZZAmlSZZZZZZZZZZZZZCZAAdMAACZ",
"$@&%&,,,3dmDDZZSAZZZZZZSZfZZZZZSSZZZZSZSZASGngFFDS",
"%;$%<<>>wtiknMmMNNmNNmmMmyyklzzmMBnbbmVCCCZZvymSCC",
"=$%;<34fMBmbxkknnzggxmvzznggzvldllzzccckgmmmnxnBBl",
"$%;,24gNCZZCSxxFZCVZAZZZZZzbZZSzCCZZCZDVzFSZZZZSGl",
",,,3<sCCCZZAZxgCMNCZZZZZZZmzZZZnmGZZZZZZzMZZVZZZCj",
"=,<3pNZZCMnzghmMzllzZZZZZZVkZZZNcDHZZZZZmlZZZZZDDm",
"3333vZZMllnMMCSSZVmblmZmnbbdlmBBllmmnBBVZbzmzbbmCM",
"3009xvgdgvvxxnMMZNmnllzlkdklkylfiuhllllkblaffggfff",
"9ejhMvxxxllxvnkadgzzbBVBmmmBnibzbznVBVmlCVMnnnnbcb",
"iznjbnnnnnbbncfzggbnmmmmmmmmzkmnnmzmVVBzMMmmnmncbb",
"lnnhcmnnnbbbfdxnnlpzbmBmnmbbdzmnxczkxbmlznbmMmnclx"
};
