/* XPM */
static char *result[] = {
/* columns rows colors chars-per-pixel */
"50 50 62 1 ",
"  c #212728",
". c #252A2C",
"X c #282D2F",
"o c #2A2F30",
"O c #2D3233",
"+ c #313536",
"@ c #323738",
"# c #353A3B",
"$ c #393E3E",
"% c #3B403F",
"& c #363E40",
"* c #3A3F40",
"= c #374143",
"- c #3D4243",
"; c #3C4749",
": c #3E494A",
"> c #414646",
", c #424847",
"< c #424748",
"1 c #454B4B",
"2 c #484E4F",
"3 c #47504F",
"4 c #49504F",
"5 c #464E50",
"6 c #494F50",
"7 c #465150",
"8 c #4C5354",
"9 c #4D5857",
"0 c #4E5758",
"q c #4F5959",
"w c #515C5C",
"e c #53605F",
"r c #535F60",
"t c #556362",
"y c #586666",
"u c #576867",
"i c #596866",
"p c #576A68",
"a c #5B6C6B",
"s c #5E706F",
"d c #5E7272",
"f c #5F7779",
"g c #607575",
"h c #627877",
"j c #637B7C",
"k c #647F80",
"l c #668283",
"z c #688587",
"x c #698689",
"c c #678889",
"v c #6A8A8C",
"b c #6C8E91",
"n c #6E9195",
"m c #6F9599",
"M c #70969B",
"N c #72999E",
"B c #739DA2",
"V c #75A1A6",
"C c #76A4AA",
"Z c #78A7AC",
"A c #79A9AE",
"S c #7AAAB0",
/* pixels */
"acvhlbvvbvvvkdfbxfjcnnnnnbnbgzbvvcjnnMnlbbbbbvxzxz",
"wazjvczxczlzvbfpydcvvnnnbbbbhkbxbzvMmMxvMmnbbbvxxz",
"28yyczjhjfhkklkjzlljlvbczzvbkrjgggvvvbhlbxjjjzljjh",
"288,jbchjcnnbmBNBNmnjjljgsdaakxhyijjjllvvgssssdhjs",
">122jBVVvjkklvCCmvlhxVVBMmbfmBmmlBVMNNNBbzVNnMNZZj",
">>>17lBNNBNblgjvkjznBBBNBBbkBBBxMSVBBBBMjnCNNBBCns",
"$->1<9vBNNBVCzjCBVVCBNBBBBkbBBBkBVBBBBAnzVNNBBNCnh",
"##--11wcNBBNBjlBMbcvBVNMMNhbBBxknnmmMMMjvZNNNNNSbj",
"-$#%,11qljjghkkzkkhhkkkkksragfagjjjhjjljxbbvggnnzl",
"$$$#,,1,2egvNNMNBBBBBmBBbrkbxbMBBBMmNBCVBBCSajSSVV",
"#+$%%->>1unCVBVVBBBBBBBZxkSBBBBBVBBBBBBBBBCBsBCBVV",
"%O+>##%-24enNNBBBBBBBBBBkkCBBBBBBBBBBBBBBBBzjCBBNN",
"$+O$@+#%-%>ynNNBBBBBBBBBkkBBBBBBBBBBBBBBBBCgMSBCVN",
"#++++++##%>4dbNNBBBBBBZSvsmBBBBBBNBNBBBBBSBaBBBBVN",
"1#+++++##$,19hcvnkkfddhkkrkBBxggkkzzvbnMbvjrhhvMBB",
"1>$+@++++#->1eajhjkkkhggy6ahssaaaaaghhhjjgg8wwajvn",
",>>#+++++#$-19edggjkjgssa2eyyyaaaaahhhgssssq8rigkz",
">>>>@+oO++$-1qesdddgsayay28weyyyiaaddggsaaiq1ishkj",
"->%%,$O++#%>,8wiyyaayywyy26weeeeyaaaadaaiye0-0ysss",
">-$$-,#++$%->18wryyrew008%6eew08qwyywweweee8%80wra",
">>%%-,>%+#$%->18000002288>288822884qwwwewqw8$,00wy",
"--%%>,-,>$#+@$,222222<><1-,62222121434444882+%2000",
"%$$$%---,-#++#>1<><<>%%-%$>822,1,,11,,312222O$>228",
"$+$$$%%%$$>$@%>%*$$$####$$$><%%,,,>>%%%%$%%%X+%-22",
"++$$$$%%$#$>,>#OO+++@++#$$<<*+X@%%##@#%+@@#%OX$#$#",
"+++##$$$#++$>2>$&;=;;;*$-12w8*O<yeeuee9e989e1OXXoo",
"++#$#++$+++#%199qtettytw0w881#O9aiiasppiutttt1.@<>",
"++#$$+++O++++-99qtwtrttwrr81<OX3weeyppyptupyt7O-wt",
"$+$+$%$O+OO+@$7890wewtw8861<<@O18wetywwttppiw2O;tw",
"$+$$%$$#+oOO+#82997988811<>>-Oo;88qqw88wqqet81X-yt",
"%+$$$$$%#XX++@<>-%-*>->$*$$$#XX&8661112882098>X#0w",
"%+$%$$%%>>#X+@$++oOO+++++OoooXX#>1>>><>112842>+#21",
"%#$#$#$%>>4,+oOoX..ooXXXo++##+o#**#$&*>*<<855*oO>-",
"%+##++@$$>11,#%:&o o*-><1766<*oO@++#@@##+#*<<+ oO+",
"@+#@+++#$>,1,38w6& +6qtyrww06*..o@*5:;=&oooXOXo&<2",
"+O+#+++#$%>%%19e0-X*wryayrqw8#.O0uaaptt;+OO&;79rrr",
"$@@@#++#%###%-9w6-X<0yrytrq08* *udaasst&O<9trqwtyy",
"@$$#+#@#####%%33<@o20000qqq08-X-rttrtyr@O70w999tew",
"$#@$$@#######%,1<+o<2211800q8-o*8000000oO189009762",
"$#@$>>$#+#@@#%,1*Oo*>><><0066<o*6666806oO:4861<1<2",
"-$##-,%%##+@#%>>@.X+&&***-*&#+.&1268665oX-222>>1<<",
"$%%%%%%%%%#@###+o....Xooo......#<11661*oX#;<>>$*$$",
"$$#$%%#%#%>%##@XX.   .... ..o..o$---<>&..@#$$##@@#",
"#@###-#####%-;%@OoOO@**@O #<<@..O+OO++O..OOOXXXXoX",
"O+@+####+@#$$;111<66800<#.1r6+oo.o. ... ....X.XXXX",
"OO++@###+###$-1808000r00>o8r06<<-<-oO+ooO@##@###$$",
"+++++@#@###$#-700000r0081@1rw00w886+@57700q0008866",
"++##@@###$##@-5880000888<O<86680881O+8rrwwq0qqq908",
"@#$$+O#######-1822788666<O#>1>1266<X <28rq88880000",
"@@##+O+++@###-111<1>1221$X@>1>>111-X -226086866686"
};
