/* XPM */
static char *result[] = {
/* columns rows colors chars-per-pixel */
"50 50 64 1 ",
"  c #1F2627",
". c #202627",
"X c #212728",
"o c #252A2C",
"O c #292E2F",
"+ c #2A2F30",
"@ c #2D3233",
"# c #2E3638",
"$ c #313536",
"% c #323738",
"& c #353A3B",
"* c #393D3E",
"= c #373F41",
"- c #3A3F40",
"; c #374042",
": c #3D4243",
"> c #3D4748",
", c #3E4A4B",
"< c #414646",
"1 c #404847",
"2 c #424748",
"3 c #454B4B",
"4 c #484E4F",
"5 c #454F50",
"6 c #494F50",
"7 c #465151",
"8 c #4B5353",
"9 c #4D5857",
"0 c #4E5758",
"q c #4F5959",
"w c #515C5C",
"e c #53615F",
"r c #535F60",
"t c #556362",
"y c #586665",
"u c #576966",
"i c #596967",
"p c #5B6C6B",
"a c #5D716E",
"s c #5D6F71",
"d c #5E7272",
"f c #607575",
"g c #617877",
"h c #617778",
"j c #637B7C",
"k c #657F80",
"l c #668283",
"z c #688586",
"x c #678688",
"c c #698789",
"v c #6A8A8D",
"b c #6C8E91",
"n c #6E9295",
"m c #6F9599",
"M c #709497",
"N c #70969A",
"B c #71999E",
"V c #739DA2",
"C c #75A1A6",
"Z c #76A4AA",
"A c #78A7AD",
"S c #77A8AD",
"D c #79AAAF",
"F c #79AAB0",
/* pixels */
"cvvflbvvvvxxdpxnvdalvnnnvvvlpcvvzzjkzbvgvvbbbvvzkz",
"vnvhzvcvvvxvvxdddsxvvnnnbbbnhlvvbvzMMMvzMbbbbbcczv",
"cczfvvjjkhhkzzdpddllvnmmvvnmkpzlzjMbMBjbMMvvvvczkk",
"ispfzxjdhxvvvvmBVmnxldjddddhspjpwygjgjglzapipdpsdp",
"lbmVBBVBlhcvnmZZVBvlkmVnbvlslmmngvMMbMBBMkMvvvbVVj",
"BBVVVVVVBnblddvnldjxBCVBVVbkVVVbbFZVVVBBkbVVVVVABf",
"VVVVVBBVBVCCClhBmBVVCBVVVVlbVVVlBZVVVVZMjVVVVVVVvf",
"VmnmmVBVVVVBCzlAVmmBCCVVVVjbVZNkBBVBVVZlnDVVVVVAnj",
"bbxxvxkvnmnxlhjzxkddkvlkkkiskksfjjjjkljgzbbvzjMMlh",
"VCVVVVnxdssxnnnMmVmmmbnmcrskkkbmMMbbbMVVBVCCydZCBV",
"CVVVVVZZSvhSACVCVVVVVVVAbhVVVVVVCCVCCCCCVVAVdBACCC",
"VVVCZZVZFbdVVVCVVVVVVVVVcxVVVVVVVVVVBVBVVVVvfZVVVV",
"CCVSFAZVZvdVVVVVVVVVVVVVkkVVVVVVVVVVCVVVVVAfvACCVV",
"VVVSFFSVVxsVVNVVVVVCZAZAbsmVVVVCVVVVVVCVVFViCACCVV",
"BVVVVVAASkrjbmNNmncljklvkybVVnklvzvvMMBBBMzyjzMMVV",
"nnnnmmnnbw3ydjkkjjjhfffdp8skjdpippfgggjjjgf8ryazMM",
"zvvzjgffd8:waffgghjljgfdp4wpyppypppgggfaaad04tyfjz",
"zzzjjjfap8*6afaffffffpiiy80wtypyipaafffappp04iaglj",
"fffgjjfpy4%3yyaapppsptwty86wwyttyppaaaapiyt0<0ypaf",
"ppyyyipiw3$*0weyttyytwww8:6wtw08qeiyeeywyww0*8wtyp",
"yyee00www3+$48ww00ww06489:3888484889eeeewww8*30wwy",
"eww084888:O@338q864443<34:384434444444484484$*8800",
"84484444<$O$<1583<<<<**-:&<8433<133311334444$*<366",
"444<<<*-$@oO*:::<***&&****&<4:*431<<:::::<<*O$-<64",
"*<:*&&&&%+o+O@%##%%#%$$$**<<-$O%-*&&$$#@@%&&++-&**",
"$$&$$$@OOXX+&-%%&;;::--*:<4w8-$:eeeeeeww979e3+O+@@",
"$$$$$$@$#+o$58ewttettuew9w883&+9piipapipuettt3X%:-",
"044884889&o*68eetteeeeeeee441$+7wwyiiiiiuiiue7$:we",
"e98eew0ww*o*88qqqweteee986411$+30wweiwwteuiuq4O>ee",
"eewtye989*o%388899898883311::$O1880ww88wwwte84O-iy",
"844484884%X$<<2<:--:<<::--***OO*46444444848084O&ww",
"<4333343<@X$**%$$@+@$$$$@@++OOO&33<:<<3344864<O*43",
":**&&&&$#@ ooooOoooO+OOOO@$&&%+&-*&*=-:<<2863-+$<<",
"&**:-&*$+OO*5795;+X+-2>347872*++%$$%&#%%%&-<<$Xo@$",
"9eyiiue4:O@3euau0*o$5wtitww06-Oo+&:5,>>=+oO+@o@:46",
"eeyiaie3-@$5euaaw2o-wtypywww0&X@qppspyt>@##=,9qttw",
"eeeepiw4:O%89qtt8:O<wryrtr008-o=pdpiddt=#3weeqqtyy",
"888weew4*X@499973%+38000w0w06<+-qttwttw@#69wqqwerw",
"4348ww04&OO380972%@<333370008<+-80880w8@O389967743",
"<3444463$OO<3877-@+*<<<:28886<+-7768886+@:68633333",
"<-<<2<<&+OO*:<<<&oo$&&-&&--&%%o=3448663+@-7431<322",
"*-*--*$+Ooo@$%%$+ooXoo++OoXXoXX%<<3444-+O*::1:--**",
"%$+++++o....XOOOoXXXoooooXo+++o+*--:<-&+X%**&$$$$%",
"OXooO+oXoXOOOooo+@$%-<--$X&63&oo+@@++$+oo@@OOOOOOO",
"++++++XO+&:2<*<<63360q06*+3r6%++++OXoooXXoooOOOO++",
"--22-&oX+386448ww0000w00<+6rw86633<@+&@$&--*&-*--<",
"66886<+X+<0qwwwww00q0q086%6q0000886$&00qwwwwwww868",
"66806-oX+-0rwqq060060086<#:64489883++5qrqww8999w00",
"88888:o.O:wrww0864446664<+%<2234642Oo-480088888000",
"43466<oXO:8ww0422<<<2442*O$<3<<<22-Oo*444086646644"
};
