/* XPM */
static char *result[] = {
/* columns rows colors chars-per-pixel */
"50 50 64 1 ",
"  c #1F2627",
". c #212728",
"X c #252A2B",
"o c #292E2F",
"O c #2A2F30",
"+ c #2D3233",
"@ c #2E3538",
"# c #313536",
"$ c #323738",
"% c #353A3B",
"& c #393E3E",
"* c #3A403F",
"= c #363F41",
"- c #3A3F40",
"; c #3D4242",
": c #3B4548",
"> c #3D484A",
", c #414646",
"< c #424847",
"1 c #424748",
"2 c #444B4B",
"3 c #494E4F",
"4 c #45504F",
"5 c #4A514F",
"6 c #494F50",
"7 c #475352",
"8 c #4B5353",
"9 c #4E5857",
"0 c #4E5758",
"q c #4E5959",
"w c #515C5C",
"e c #53615F",
"r c #535F60",
"t c #556362",
"y c #586665",
"u c #576865",
"i c #596967",
"p c #576B6C",
"a c #5B6C6B",
"s c #5D706E",
"d c #5E7272",
"f c #607575",
"g c #617778",
"h c #637B7B",
"j c #657F80",
"k c #668283",
"l c #688587",
"z c #678688",
"x c #698789",
"c c #67898A",
"v c #6A8A8C",
"b c #6D8E91",
"n c #6E9295",
"m c #6F9498",
"M c #70969A",
"N c #71999E",
"B c #739DA2",
"V c #75A1A6",
"C c #76A4AA",
"Z c #78A7AD",
"A c #77A8AD",
"S c #78A9AE",
"D c #7AAAB1",
"F c None",
/* pixels */
"vbxdxnvvnvvcgajnnddknnnnnbbbdkbbxvhlvbMhvbbbbbxxlf",
"bbvgxxxxvvzcvvddpscvvbnbbvbbhgbvbvknnmbkmnbbbbvxf9",
"kkjfnxjhhddkllddddjjcmmmbvbnkyjhhhbbbMkkMnvlxxlfw5",
"iddgkchdgcnvvvNNCMnnhdhddafddpjfyefhhhhjlfiaafe355",
"vnBBNBCNlgkxvmACVmchjNVNmbvdxMMNhvBmmMNBNknMbx2,,,",
"NBBBBNNBNNnxgskvjdjvNVBNBBnhBBBbvDZBNVNNklVNnw*,,,",
"BNNBNBBNNBBCCkhVNBVVVNBBBBxxBBCjMZBBBBCNhMNne3,;,&",
"BmnmmNBBBBBNVkkCBnnnVVBBBBjvBBNjNMNNNVClkCny53;*&#",
"bvzcvjjcbbvjhghkxhfdjkjhhhyaghaahfhhhhhghh5<3<*&%%",
"VVCBBBMzhpdbMmMMMBMBNMMBnrdxxxbBNNnnnMVBMt,,,,&###",
"VBBBBCCZDxhZCVVCBBBBBBBCnhBBBBBBVVBVNNBMe3,**&%$#+",
"BBBVCCBVDbdBVBBBBBBBBBBBvjBBBBBBBVNBNNNa;;**%#%#+#",
"BBBZZZCBCxgVBBNVBBBBBBBBxhBBBBBBNBBNNNh3;*&&######",
"BBCZZDAVBzaVBmVBBBBBBCZDnanBBBBCVNNNnh93<*%%#+#+##",
"BNBBVVCAZgwdcmmnbbxjgghxjyjBBbjgkkkkfy3,*#####%#%,",
"nmbnnbbvz03ydghjhgjhgggda8ihgdaasaase9,,&%%#+##%,,",
"lbvjhhfsf5,wsfffgggjhffda3wyyaaiaayaw9,;&##+++%,,,",
"hlhhhhfsa3%5asfffffffayyy08wwyyiiaayw51;&%+++%,*&,",
"fffffhfay3$,yyasaaasatwty35wwttttiit02,;*%$#%<**&,",
"sayyryayw1#$0wttrryrtw0w0;2wtw080wew22;&&&#%,<;*;;",
"yyew000e02++370w00w085330,1555558553<*%$%&,,;<,&;;",
"ww0053555;o+2300833351,,2,185523222<;$##%*<;*;**&&",
"5355333,,#o#;,272,,,,;&&&%,533222<,<<$#%*&&***%%&%",
"33,,,*&&#+Xo%;;;-&&&$$&&&-&-2;%,2,;**%**&&&*;**%%F",
"&,;&%&%%@+XXX@++@#$$@@#%&&12;@o@**%%;>*&$%&&&&&%%F",
"####+++oX X+*;*;;::>>:;-;26w8:+;eeew9<*%###&##%&%F",
"$$#%$#+%%+X@30wweteetutwww885%o4aiee5*%####$+#&%%F",
"055008809%X&78qeeeeeettwrr822%X29www5*#+#+##%&&%%F",
"w9wwrw0ww&X&3000qqtewew08622<%X200wq5%#++##&&&&&&F",
"ewwtyw000%X#2588987888822,,:;#X;55582%####&&&&&*-F",
"553683833+.$,,,,;&*&,&-&&&%%&+X%2322;%#+%*%&&&&-&F",
"22111222,OX#%###++O+#####OOoOOX$,1,&%##&2,&&&&&%;F",
"&&%%$$$#+OXXXoo+oo.ooOOOO+%=-%O%--%%%#*22<%%%##%&F",
"%-;,:;*%+oX;7qq7:O.O;12688862-OOO##$$;<2<,&%###$%+",
"qeiapuq3;o+4eupp0-X#60yitrw08-OXO=:222;;;*&$##$$%#",
"eetaspe2;o$4euspr1X-rriairww0-XOqpir02-&*&&$#$%&%%",
"eqwyiiw7-X%69wee8;X10rrrrr000;X$tayw71%%%%%$$&%$%%",
"870wtw06&.#29q971&O20000000081O%0rw82;%%%$*&&%$&%%",
"22580003%oo180971$O;2211600001O%7863,-%$$%&%%*&$%&",
"2225236,#oo,2767-+O&;,,,16606,O&36221;%#$$$%**%%%-",
";-,111;$Ooo&&,,,$XX#$$-$%%%=$#o$2223<*%$$##*&&%%&-",
"-&%-%%$Oo.X+####OXX..oooXX.....+;<<<,*%##%*&%%$*%&",
"#OOOOOOX....XXXXX.. XXooo.XO#OXO%&*&*%#+%%%%*%$%%%",
"XXXXXO.X.Xo+ooXXO@$=-21-$.$33=oXo+OO$$%*%$#%%#####",
"OOO+OOXXO-11,,,1666680r6-X1r8-++O++Xo%*%%$##%###++",
"1111-%X.O188860w00000r003+3rr866322%#**%%%%%%#####",
"36083;O.O1qwwwwwr00000083$100000883$+%%%%*%%%#%%%$",
"88806-X.O;0ww000880800861@-62388882#o#%%%%%%#+#*&%",
"66888;X.o;wrr00862636863,O$,1113261+o#%%%#####%&$#",
"22383;X.o;8w0821,,;,,211;O+,1,,111;+o##%%#+#&&%###"
};
