/* XPM */
static char *result[] = {
/* columns rows colors chars-per-pixel */
"50 50 125 2 ",
"   c black",
".  c #010101",
"X  c #020202",
"o  c gray1",
"O  c #040404",
"+  c gray2",
"@  c #060606",
"#  c #070707",
"$  c gray3",
"%  c #090909",
"&  c gray4",
"*  c #0B0B0B",
"=  c #0C0C0C",
"-  c gray5",
";  c #0E0E0E",
":  c gray6",
">  c #101010",
",  c #111111",
"<  c gray7",
"1  c #131313",
"2  c gray8",
"3  c #161616",
"4  c gray9",
"5  c #181818",
"6  c gray10",
"7  c #1B1B1B",
"8  c gray11",
"9  c #1D1D1D",
"0  c #1E1E1E",
"q  c gray12",
"w  c #202020",
"e  c gray13",
"r  c #222222",
"t  c #232323",
"y  c gray14",
"u  c #252525",
"i  c gray15",
"p  c #272727",
"a  c gray16",
"s  c #2A2A2A",
"d  c gray17",
"f  c #2C2C2C",
"g  c #2D2D2D",
"h  c gray18",
"j  c #2F2F2F",
"k  c gray19",
"l  c #313131",
"z  c #323232",
"x  c gray20",
"c  c #343434",
"v  c #353535",
"b  c gray21",
"n  c #373737",
"m  c gray22",
"M  c #393939",
"N  c #3A3A3A",
"B  c gray23",
"V  c #3C3C3C",
"C  c gray24",
"Z  c #3E3E3E",
"A  c #3F3F3F",
"S  c gray25",
"D  c #414141",
"F  c gray26",
"G  c #434343",
"H  c #444444",
"J  c gray27",
"K  c #464646",
"L  c gray28",
"P  c #484848",
"I  c #494949",
"U  c gray29",
"Y  c #4B4B4B",
"T  c #4C4C4C",
"R  c gray30",
"E  c #4E4E4E",
"W  c gray31",
"Q  c #505050",
"!  c #515151",
"~  c gray32",
"^  c #535353",
"/  c gray33",
"(  c #555555",
")  c #565656",
"_  c #585858",
"`  c gray35",
"'  c #5A5A5A",
"]  c #5B5B5B",
"[  c gray36",
"{  c gray37",
"}  c #5F5F5F",
"|  c #606060",
" . c gray38",
".. c #626262",
"X. c gray39",
"o. c #646464",
"O. c #656565",
"+. c gray40",
"@. c #676767",
"#. c #686868",
"$. c DimGray",
"%. c #6A6A6A",
"&. c gray42",
"*. c #6D6D6D",
"=. c gray43",
"-. c #6F6F6F",
";. c gray44",
":. c #717171",
">. c #727272",
",. c #747474",
"<. c gray46",
"1. c #767676",
"2. c #777777",
"3. c gray47",
"4. c #797979",
"5. c gray48",
"6. c #7B7B7B",
"7. c #7C7C7C",
"8. c gray49",
"9. c #7E7E7E",
"0. c gray50",
"q. c #808080",
"w. c #818181",
"e. c gray51",
"r. c None",
/* pixels */
"r.r.r.r.r.r.r.r.r.r.r.r.r.r.r.r.r.r.r.r.r.r.r.r.r.r.r.r.r.r.r.r.r.r.r.r.r.r.r.r.r.r.r.r.r.r.r.r.r.r.",
"r.r.r.r.r.r.r.r.r.r.r.r.r.r.r.r.r.r.r.r.r.r.r.r.r.r.r.r.r.r.r.r.r.r.r.r.r.r.r.r.r.r.r.r.r.r.r.r.r.r.",
"r.r.r.r.r.r.r.r.r.r.r.r.r.r.r.r.r.r.r.r.r.r.r.r.r.r.r.r.r.r.r.r.r.r.r.r.r.r.r.r.r.r.r.r.r.r.r.r.r.r.",
"r.r.r.r.r.r.r.r.r.r.r.r.r.r.r.r.r.r.r.r.r.      X o $ & +     r.r.r.r.r.r.r.r.r.r.r.r.r.r.r.r.r.r.r.",
"r.r.r.r.r.r.r.r.r.r.r.r.r.r.r.r.r.r.% 3 i n H W ( ' W q d e # . * + r.r.r.r.r.r.r.r.r.r.r.r.r.r.r.r.",
"r.r.r.r.r.r.r.r.r.r.r.r.r.r.r.X < c V K ! { #.*.%.) s n 2.6.| a y d 1 # r.r.r.r.r.r.r.r.r.r.r.r.r.r.",
"r.r.r.r.r.r.r.r.r.r.r.r.r.r.& b &.) d I H 4 e P ( ) o.8.w.q.e.4.S f A 0 # $ r.r.r.r.r.r.r.r.r.r.r.r.",
"r.r.r.r.r.r.r.r.r.r.r.r.r.4 ( 9.6.( ,.q.Q a +.w.w.e.e.q.q.q.q.w.6.B d D y # % r.r.r.r.r.r.r.r.r.r.r.",
"r.r.r.r.r.r.r.r.r.r.r.r.9 +.e.w.q.q.q.L z <.w.q.q.q.q.q.q.q.q.q.w.3.l s F 0 * r.r.r.r.r.r.r.r.r.r.r.",
"r.r.r.r.r.r.r.r.r.r.r.5 o.e.7.*.$.=.E g L e.q.q.q.q.q.q.q.q.q.q.q.w.;.q j A 2 * r.r.r.r.r.r.r.r.r.r.",
"r.r.r.r.r.r.r.r.r.r.r.A q.6.T H h d / ,.L 2.w.q.q.q.q.q.q.q.q.q.q.q.e.T ; A l % r.r.r.r.r.r.r.r.r.r.",
"r.r.r.r.r.r.r.r.r.r.r.l 5.0.5.@.S 1.w.w...E ,.q.q.q.q.q.q.q.q.q.q.q.w.1.e a H 7 + r.r.r.r.r.r.r.r.r.",
"r.r.r.r.r.r.r.r.r.# 2 b 1.w.w.U  .e.q.q.q.~ p ..0.q.q.q.q.q.q.q.q.q.q.e.] 7 F j % r.r.r.r.r.r.r.r.r.",
"r.r.r.r.r.r.r.r.r.n ;.9.q.q.6.] 7.q.q.q.q.5.K ,.q.q.q.q.q.q.q.q.q.q.q.q.5.s b C , $ r.r.r.r.r.r.r.r.",
"r.r.r.r.r.r.r.r.r.L w.q.q.q.8.7.w.q.q.q.q.q.<.9.q.q.q.q.q.q.q.q.q.q.q.q.e.E i H r # r.r.r.r.r.r.r.r.",
"r.r.r.r.r.r.r.r.r.~ e.q.q.q.q.7.4.7.q.w.q.q.q.w.w.q.q.q.0.9.0.e.q.q.q.q.w.&.q S k X r.r.r.r.r.r.r.r.",
"r.r.r.r.r.r.r.r.1 #.w.q.q.q.q.I z I Y <.w.q.0.' +.w.q.0.Y G ! ~ 5.q.q.q.w.,.0 M m O r.r.r.r.r.r.r.r.",
"r.r.r.r.r.r.r.r.8 -.w.q.q.q.e.R L >.x } e.q.w.L ^ e.q.w.A U =.e X.e.q.q.w.1.q n b O r.r.r.r.r.r.r.r.",
"r.r.r.r.r.r.r.r.8 -.w.q.q.q.e._ E [ c 2.w.q.e.R ) e.q.e.T U Y H 4.q.q.q.w.1.q n v O r.r.r.r.r.r.r.r.",
"r.r.r.r.r.r.r.r.8 -.w.q.q.q.e.` E w.U +.w.q.e.T ( e.q.e.T W 6.0.q.q.q.q.w.1.q n v O r.r.r.r.r.r.r.r.",
"r.r.r.r.r.r.r.r.8 -.w.q.q.q.e.Q D e.%.| w.q.w.F F w.q.e.H J e.q.q.q.q.q.w.1.q n v O r.r.r.r.r.r.r.r.",
"r.r.r.r.r.r.r.r.7 -.e.q.q.q.q.>.*.q.0.8.q.q.q.o.} 9.q.q.o.+.q.q.q.q.q.q.w.1.q n v O r.r.r.r.r.r.r.r.",
"r.r.r.r.r.r.r.r.r.C ;.q.q.q.q.w.w.q.q.q.q.q.q.w.w.q.q.q.w.w.q.q.q.q.q.q.w.1.q n v O r.r.r.r.r.r.r.r.",
"r.r.r.r.r.r.r.r.r.< J 8.q.q.q.q.q.q.q.q.q.q.q.q.q.q.q.q.q.q.q.q.q.q.q.q.w.<.0 m v O r.r.r.r.r.r.r.r.",
"r.r.r.r.r.r.r.r.e +.7.q.q.q.q.q.q.q.q.q.q.q.q.q.q.q.q.q.q.q.q.q.q.q.q.q.w.#.1 M N # r.r.r.r.r.r.r.r.",
"r.r.r.r.r.r.r.r.g 5.w.q.q.q.q.q.q.q.q.q.q.q.q.q.q.q.q.q.q.q.q.q.q.q.q.q.e.K 6 D d % r.r.r.r.r.r.r.r.",
"r.r.r.r.r.r.r.r.f 4.q.q.q.q.q.q.q.q.q.q.q.q.q.q.q.q.q.q.q.q.q.q.q.q.q.q.e./ k H 9 + r.r.r.r.r.r.r.r.",
"r.r.r.r.r.r.r.r.f 4.q.q.q.q.q.q.q.q.q.q.q.q.q.q.q.q.q.q.q.q.q.q.q.q.q.q.w.;.w S n #   r.r.r.r.r.r.r.",
"r.r.r.r.r.r.r.r.f 4.q.q.q.q.q.q.q.q.q.q.q.q.q.q.q.q.q.q.q.q.q.q.q.q.q.q.w.1.6 c D -   r.r.r.r.r.r.r.",
"r.r.r.r.r.r.r.r.s 2.q.q.q.q.q.q.q.q.q.q.q.q.q.q.q.q.q.q.q.q.q.q.q.q.q.q.w.1.7 c C *   r.r.r.r.r.r.r.",
"r.r.r.r.r.r.r.r.p >.w.q.q.q.q.q.q.q.q.q.q.q.q.q.q.q.q.q.q.q.q.q.q.q.q.q.w.1.7 c C *   r.r.r.r.r.r.r.",
"r.r.r.r.r.r.r.r.8 -.w.q.q.q.q.q.q.q.q.q.q.q.q.q.q.q.q.q.q.q.q.q.q.q.q.q.w.1.7 c C *   r.r.r.r.r.r.r.",
"r.r.r.r.r.r.r.r.8 -.w.q.q.q.q.q.q.q.q.q.q.q.q.q.q.q.q.q.q.q.q.q.q.q.q.q.w.1.7 c C *   r.r.r.r.r.r.r.",
"r.r.r.r.r.r.r.r.8 -.w.q.q.q.q.q.q.q.q.q.q.q.q.q.q.q.q.q.q.q.q.q.q.q.q.q.w.1.7 c C *   r.r.r.r.r.r.r.",
"r.r.r.r.r.r.r.r.8 -.w.q.q.q.q.q.q.q.q.q.q.q.q.q.q.q.q.q.q.q.q.q.q.q.q.q.w.1.7 c C *   r.r.r.r.r.r.r.",
"r.r.r.r.r.r.r.r.8 -.w.q.q.q.q.q.q.q.q.q.q.q.q.q.q.q.q.q.q.q.q.q.q.q.q.q.w.1.7 c C *   r.r.r.r.r.r.r.",
"r.r.r.r.r.r.r.r.8 -.w.q.q.q.q.q.q.q.q.q.q.q.q.q.q.q.q.q.q.q.q.q.q.q.q.q.w.1.6 c C *   r.r.r.r.r.r.r.",
"r.r.r.r.r.r.r.r.8 -.w.q.q.q.q.q.q.q.q.q.q.q.q.q.q.q.q.q.q.q.q.q.q.q.q.q.q.5.r c C *   r.r.r.r.r.r.r.",
"r.r.r.r.r.r.r.r.8 -.w.q.q.q.q.q.q.q.q.q.q.q.q.q.q.q.q.q.q.q.q.q.q.q.q.q.q.q.b x C = & r.r.r.r.r.r.r.",
"r.r.r.r.r.r.r.r.9 -.w.q.q.q.q.q.q.q.q.q.q.q.q.q.q.q.q.q.q.q.q.q.q.q.q.q.q.w.Z c C * # & r.r.r.r.r.r.",
"r.r.r.r.r.r.; X 5 -.w.q.q.q.q.q.q.q.q.q.q.q.q.q.q.q.q.q.q.q.q.q.q.q.q.q.q.w.Z c C * O % % r.r.r.r.r.",
"r.r.r.r.r.r.r.  , ;.w.q.0.q.q.q.q.q.0.q.q.q.q.q.q.q.q.q.q.q.9.q.q.q.q.q.q.w.Z c Z *   + & r.r.r.r.r.",
"r.r.r.r.r.r.* . : :.0.@.,.w.q.q.q.q.&.6.q.q.q.q.q.q.q.q.q.8.#.q.w.q.q.w.2.;.M u p +   X 1 r.r.r.r.r.",
"r.r.r.r.r.r.: o ; o.^ f -.e.e.e.w.6.Y *.9.q.w.w.q.q.w.q.9.O.m *.3.6.5.>.T N 3 .       O # r.r.r.r.r.",
"r.r.r.r.r.r.< @ X ; # o r V I L m e = 6 p k v b m m b M v 4 O > 6 t r 3 @ X   .     o $ r.r.r.r.r.r.",
"r.r.r.r.r.r.r.; .     + # +           . X     o X r.. O r.r.r.r.    r.r.r.  + + X . @ # r.r.r.r.r.r.",
"r.r.r.r.r.r.r.r.r.r.r.r.r.r.# # # r.r.o r.r.r.+ r.r.r.r.r.r.r.r.r.r.r.r.r.r.r.r.r.@ O r.r.r.r.r.r.r.",
"r.r.r.r.r.r.r.r.r.r.r.r.r.r.r.r.r.r.r.r.r.r.r.r.r.r.r.r.r.r.r.r.r.r.r.r.r.r.r.r.r.r.r.r.r.r.r.r.r.r.",
"r.r.r.r.r.r.r.r.r.r.r.r.r.r.r.r.r.r.r.r.r.r.r.r.r.r.r.r.r.r.r.r.r.r.r.r.r.r.r.r.r.r.r.r.r.r.r.r.r.r.",
"r.r.r.r.r.r.r.r.r.r.r.r.r.r.r.r.r.r.r.r.r.r.r.r.r.r.r.r.r.r.r.r.r.r.r.r.r.r.r.r.r.r.r.r.r.r.r.r.r.r."
};
